<mxfile host="65bd71144e">
    <diagram id="23GBxwQ3inFw5OKTjETd" name="第 1 页">
        <mxGraphModel dx="717" dy="1704" grid="1" gridSize="10" guides="1" tooltips="1" connect="1" arrows="1" fold="1" page="1" pageScale="1" pageWidth="583" pageHeight="827" math="0" shadow="0">
            <root>
                <mxCell id="0"/>
                <mxCell id="1" parent="0"/>
                <mxCell id="_sYfLdinzcXWraGzEgif-4" value="" style="shape=image;verticalLabelPosition=bottom;labelBackgroundColor=#ffffff;verticalAlign=top;aspect=fixed;imageAspect=0;image=data:image/png,iVBORw0KGgoAAAANSUhEUgAABBcAAAU5CAYAAAA/bezDAAAgAElEQVR4AezaQWqbaRBFUS0vO8qSssMmMzUa9DDQRHJxHz4BD2OKU5cP/sKPf37/fvphoAENaEADGtCABjSgAQ1oQAMa0MDfNPB8Pp+Pv/mP/o/gNKABDWhAAxrQgAY0oAENaEADGng14Ljgrzb81YoGNKABDWhAAxrQgAY0oAENaOCtBhwXBPRWQK6UrpQa0IAGNKABDWhAAxrQgAY04LjguOC4oAENaEADGtCABjSgAQ1oQAMaeKsBxwUBvRWQC6ULpQY0oAENaEADGtCABjSgAQ388bjweDyefhhoQAMa0IAGNKABDWhAAxrQgAa+dwP/53jkuOCI4oikAQ1oQAMa0IAGNKABDWhAAxr4YwMfOS68rg/+vS/w4+evpx8GGtCABjSgAQ1oQAMa0IAGvr6B97/g/IaXwH9/seK4EOrBA/L1DwhjxhrQgAY0oAENaEADGtDAqwH/PiPguPAZx4/+Fo+cR04DGtCABjSgAQ1oQAMa0MBNAx/9mPvGv8xxIbh8j8jNI8KZswY0oAENaEADGtCABjQQ/CScHMlxIbg2D5wHTgMa0IAGNKABDWhAAxrQwE0DwU/CyZEcF4Jr84jcPCKcOWtAAxrQgAY0oAENaEADwU/CyZEcF4Jr88B54DSgAQ1oQAMa0IAGNKABDdw0EPwknBzJcSG4No/IzSPCmbMGNKABDWhAAxrQgAY0EPwknBzJcSG4Ng+cB04DGtCABjSgAQ1oQAMa0MBNA8FPwsmRHBeCa/OI3DwinDlrQAMa0IAGNKABDWhAA8FPwsmRHBeCa/PAeeA0oAENaEADGtCABjSgAQ3cNBD8JJwcyXEhuDaPyM0jwpmzBjSgAQ1oQAMa0IAGNBD8JJwcyXEhuDYPnAdOAxrQgAY0oAENaEADGtDATQPBT8LJkRwXgmvziNw8Ipw5a0ADGtCABjSgAQ1oQAPBT8LJkRwXgmvzwHngNKABDWhAAxrQgAY0oAEN3DQQ/CScHMlxIbg2j8jNI8KZswY0oAENaEADGtCABjQQ/CScHMlxIbg2D5wHTgMa0IAGNKABDWhAAxrQwE0DwU/CyZEcF4Jr84jcPCKcOWtAAxrQgAY0oAENaEADwU/CyZEcF4Jr88B54DSgAQ1oQAMa0IAGNKABDdw0EPwknBzJcSG4No/IzSPCmbMGNKABDWhAAxrQgAY0EPwknBzJcWFybYYmQIAAAQIECBAgQIAAAQIdAceFzi5MQoAAAQIECBAgQIAAAQIEJgUcFybXZmgCBAgQIECAAAECBAgQINARcFzo7MIkBAgQIECAAAECBAgQIEBgUsBxYXJthiZAgAABAgQIECBAgAABAh0Bx4XOLkxCgAABAgQIECBAgAABAgQmBRwXJtdmaAIECBAgQIAAAQIECBAg0BFwXOjswiQECBAgQIAAAQIECBAgQGBSwHFhcm2GJkCAAAECBAgQIECAAAECHQHHhc4uTEKAAAECBAgQIECAAAECBCYFHBcm12ZoAgQIECBAgAABAgQIECDQEXBc6OzCJAQIECBAgAABAgQIECBAYFLAcWFybYYmQIAAAQIECBAgQIAAAQIdAceFzi5MQoAAAQIECBAgQIAAAQIEJgUcFybXZmgCBAgQIECAAAECBAgQINARcFzo7MIkBAgQIECAAAECBAgQIEBgUsBxYXJthiZAgAABAgQIECBAgAABAh0Bx4XOLkxCgAABAgQIECBAgAABAgQmBRwXJtdmaAIECBAgQIAAAQIECBAg0BFwXOjswiQECBAgQIAAAQIECBAgQGBSwHFhcm2GJkCAAAECBAgQIECAAAECHQHHhc4uTEKAAAECBAgQIECAAAECBCYFHBcm12ZoAgQIECBAgAABAgQIECDQEXBc6OzCJAQIECBAgAABAgQIECBAYFLAcWFybYYmQIAAAQIECBAgQIAAAQIdAceFzi5MQoAAAQIECBAgQIAAAQIEJgUcFybXZmgCBAgQIECAAAECBAgQINARcFzo7MIkBAgQIECAAAECBAgQIEBgUsBxYXJthiZAgAABAgQIECBAgAABAh0Bx4XOLkxCgAABAgQIECBAgAABAgQmBRwXJtdmaAIECBAgQIAAAQIECBAg0BFwXOjswiQECBAgQIAAAQIECBAgQGBSwHFhcm2GJkCAAAECBAgQIECAAAECHQHHhc4uTEKAAAECBAgQIECAAAECBCYFHBcm12ZoAgQIECBAgAABAgQIECDQEXBc6OzCJAQIECBAgAABAgQIECBAYFLAcWFybYYmQIAAAQIECBAgQIAAAQIdAceFzi5MQoAAAQIECBAgQIAAAQIEJgUcFybXZmgCBAgQIECAAAECBAgQINARcFzo7MIkBAgQIECAAAECBAgQIEBgUsBxYXJthiZAgAABAgQIECBAgAABAh0Bx4XOLkxCgAABAgQIECBAgAABAgQmBRwXJtdmaAIECBAgQIAAAQIECBAg0BFwXOjswiQECBAgQIAAAQIECBAgQGBSwHFhcm2GJkCAAAECBAgQIECAAAECHQHHhc4uTEKAAAECBAgQIECAAAECBCYFHBcm12ZoAgQIECBAgAABAgQIECDQEXBc6OzCJAQIECBAgAABAgQIECBAYFLAcWFybYYmQIAAAQIECBAgQIAAAQIdAceFzi5MQoAAAQIECBAgQIAAAQIEJgUcFybXZmgCBAgQIECAAAECBAgQINARcFzo7MIkBAgQIECAAAECBAgQIEBgUsBxYXJthiZAgAABAgQIECBAgAABAh0Bx4XOLkxCgAABAgQIECBAgAABAgQmBRwXJtdmaAIECBAgQIAAAQIECBAg0BFwXOjswiQECBAgQIAAAQIECBAgQGBSwHFhcm2GJkCAAAECBAgQIECAAAECHQHHhc4uTEKAAAECBAgQIECAAAECBCYFHBcm12ZoAgQIECBAgAABAgQIECDQEXBc6OzCJAQIECBAgAABAgQIECBAYFLAcWFybYYmQIAAAQIECBAgQIAAAQIdAceFzi5MQoAAAQIECBAgQIAAAQIEJgUcFybXZmgCBAgQIECAAAECBAgQINARcFzo7MIkBAgQIECAAAECBAgQIEBgUsBxYXJthiZAgAABAgQIECBAgAABAh0Bx4XOLkxCgAABAgQIECBAgAABAgQmBRwXJtdmaAIECBAgQIAAAQIECBAg0BFwXOjswiQECBAgQIAAAQIECBAgQGBSwHFhcm2GJkCAAAECBAgQIECAAAECHQHHhc4uTEKAAAECBAgQIECAAAECBCYFHBcm12ZoAgQIECBAgAABAgQIECDQEXBc6OzCJAQIECBAgAABAgQIECBAYFLAcWFybYYmQIAAAQIECBAgQIAAAQIdAceFzi5MQoAAAQIECBAgQIAAAQIEJgUcFybXZmgCBAgQIECAAAECBAgQINARcFzo7MIkBAgQIECAAAECBAgQIEBgUsBxYXJthiZAgAABAgQIECBAgAABAh0Bx4XOLkxCgAABAgQIECBAgAABAgQmBRwXJtdmaAIECBAgQIAAAQIECBAg0BFwXOjswiQECBAgQIAAAQIECBAgQGBSwHFhcm2GJkCAAAECBAgQIECAAAECHQHHhc4uTEKAAAECBAgQIECAAAECBCYFHBcm12ZoAgQIECBAgAABAgQIECDQEXBc6OzCJAQIECBAgAABAgQIECBAYFLAcWFybYYmQIAAAQIECBAgQIAAAQIdAceFzi5MQoAAAQIECBAgQIAAAQIEJgUcFybXZmgCBAgQIECAAAECBAgQINARcFzo7MIkBAgQIECAAAECBAgQIEBgUsBxYXJthiZAgAABAgQIECBAgAABAh0Bx4XOLkxCgAABAgQIECBAgAABAgQmBRwXJtdmaAIECBAgQIAAAQIECBAg0BFwXOjswiQECBAgQIAAAQIECBAgQGBSwHFhcm2GJkCAAAECBAgQIECAAAECHQHHhc4uTEKAAAECBAgQIECAAAECBCYFHBcm12ZoAgQIECBAgAABAgQIECDQEXBc6OzCJAQIECBAgAABAgQIECBAYFLAcWFybYYmQIAAAQIECBAgQIAAAQIdAceFzi5MQoAAAQIECBAgQIAAAQIEJgUcFybXZmgCBAgQIECAAAECBAgQINARcFzo7MIkBAgQIECAAAECBAgQIEBgUsBxYXJthiZAgAABAgQIECBAgAABAh0Bx4XOLkxCgAABAgQIECBAgAABAgQmBRwXJtdmaAIECBAgQIAAAQIECBAg0BFwXOjswiQECBAgQIAAAQIECBAgQGBSwHFhcm2GJkCAAAECBAgQIECAAAECHQHHhc4uTEKAAAECBAgQIECAAAECBCYFHBcm12ZoAgQIECBAgAABAgQIECDQEXBc6OzCJAQIECBAgAABAgQIECBAYFLAcWFybYYmQIAAAQIECBAgQIAAAQIdAceFzi5MQoAAAQIECBAgQIAAAQIEJgUcFybXZmgCBAgQIECAAAECBAgQINARcFzo7MIkBAgQIECAAAECBAgQIEBgUsBxYXJthiZAgAABAgQIECBAgAABAh0Bx4XOLkxCgAABAgQIECBAgAABAgQmBRwXJtdmaAIECBAgQIAAAQIECBAg0BFwXOjswiQECBAgQIAAAQIECBAgQGBSwHFhcm2GJkCAAAECBAgQIECAAAECHQHHhc4uTEKAAAECBAgQIECAAAECBCYFHBcm12ZoAgQIECBAgAABAgQIECDQEXBc6OzCJAQIECBAgAABAgQIECBAYFLAcWFybYYmQIAAAQIECBAgQIAAAQIdAceFzi5MQoAAAQIECBAgQIAAAQIEJgUcFybXZmgCBAgQIECAAAECBAgQINARcFzo7MIkBAgQIECAAAECBAgQIEBgUsBxYXJthiZAgAABAgQIECBAgAABAh0Bx4XOLkxCgAABAgQIECBAgAABAgQmBRwXJtdmaAIECBAgQIAAAQIECBAg0BFwXOjswiQECBAgQIAAAQIECBAgQGBSwHFhcm2GJkCAAAECBAgQIECAAAECHQHHhc4uTEKAAAECBAgQIECAAAECBCYFHBcm12ZoAgQIECBAgAABAgQIECDQEXBc6OzCJAQIECBAgAABAgQIECBAYFLAcWFybYYmQIAAAQIECBAgQIAAAQIdAceFzi5MQoAAAQIECBAgQIAAAQIEJgUcFybXZmgCBAgQIECAAAECBAgQINARcFzo7MIkBAgQIECAAAECBAgQIEBgUsBxYXJthiZAgAABAgQIECBAgAABAh0Bx4XOLkxCgAABAgQIECBAgAABAgQmBRwXJtdmaAIECBAgQIAAAQIECBAg0BFwXOjswiQECBAgQIAAAQIECBAgQGBSwHFhcm2GJkCAAAECBAgQIECAAAECHQHHhc4uTEKAAAECBAgQIECAAAECBCYFHBcm12ZoAgQIECBAgAABAgQIECDQEXBc6OzCJAQIECBAgAABAgQIECBAYFLAcWFybYYmQIAAAQIECBAgQIAAAQIdAceFzi5MQoAAAQIECBAgQIAAAQIEJgUcFybXZmgCBAgQIECAAAECBAgQINARcFzo7MIkBAgQIECAAAECBAgQIEBgUsBxYXJthiZAgAABAgQIECBAgAABAh0Bx4XOLkxCgAABAgQIECBAgAABAgQmBRwXJtdmaAIECBAgQIAAAQIECBAg0BFwXOjswiQECBAgQIAAAQIECBAgQGBSwHFhcm2GJkCAAAECBAgQIECAAAECHQHHhc4uTEKAAAECBAgQIECAAAECBCYFHBcm12ZoAgQIECBAgAABAgQIECDQEXBc6OzCJAQIECBAgAABAgQIECBAYFLAcSG4th8/fz39MNCABjSgAQ1oQAMa0IAGNPD1DQQ/CSdHclwIrs0D8vUPCGPGGtCABjSgAQ1oQAMa0MCrAf8+I+C48BnHj/4Wj5xHTgMa0IAGNKABDWhAAxrQwE0DH/2Y+8a/zHEhuHyPyM0jwpmzBjSgAQ1oQAMa0IAGNBD8JJwcyXEhuDYPnAdOAxrQgAY0oAENaEADGtDATQPBT8LJkRwXgmvziNw8Ipw5a0ADGtCABjSgAQ1oQAPBT8LJkRwXgmvzwHngNKABDWhAAxrQgAY0oAEN3DQQ/CScHMlxIbg2j8jNI8KZswY0oAENaEADGtCABjQQ/CScHMlxIbg2D5wHTgMa0IAGNKABDWhAAxrQwE0DwU/CyZEcF4Jr84jcPCKcOWtAAxrQgAY0oAENaEADwU/CyZEcF4Jr88B54DSgAQ1oQAMa0IAGNKABDdw0EPwknBzJcSG4No/IzSPCmbMGNKABDWhAAxrQgAY0EPwknBzJcSG4Ng+cB04DGtCABjSgAQ1oQAMa0MBNA8FPwsmRHBeCa/OI3DwinDlrQAMa0IAGNKABDWhAA8FPwsmRHBeCa/PAeeA0oAENaEADGtCABjSgAQ3cNBD8JJwcyXEhuDaPyM0jwpmzBjSgAQ1oQAMa0IAGNBD8JJwcyXEhuDYPnAdOAxrQgAY0oAENaEADGtDATQPBT8LJkRwXgmvziNw8Ipw5a0ADGtCABjSgAQ1oQAPBT8LJkRwXgmvzwHngNKABDWhAAxrQgAY0oAEN3DQQ/CScHMlxIbg2j8jNI8KZswY0oAENaEADGtCABjQQ/CScHMlxIbg2D5wHTgMa0IAGNKABDWhAAxrQwE0DwU/CyZEcF4Jr84jcPCKcOWtAAxrQgAY0oAENaEADwU/CyZEcF4Jr88B54DSgAQ1oQAMa0IAGNKABDdw0EPwknBzJcSG4No/IzSPCmbMGNKABDWhAAxrQgAY0EPwknBzJcSG4Ng+cB04DGtCABjSgAQ1oQAMa0MBNA8FPwsmRHBeCa/OI3DwinDlrQAMa0IAGNKABDWhAA8FPwsmRHBeCa/PAeeA0oAENaEADGtCABjSgAQ3cNBD8JJwcyXEhuDaPyM0jwpmzBjSgAQ1oQAMa0IAGNBD8JJwcyXEhuDYPnAdOAxrQgAY0oAENaEADGtDATQPBT8LJkRwXgmvziNw8Ipw5a0ADGtCABjSgAQ1oQAPBT8LJkRwXgmvzwHngNKABDWhAAxrQgAY0oAEN3DQQ/CScHMlxIbg2j8jNI8KZswY0oAENaEADGtCABjQQ/CScHMlxIbg2D5wHTgMa0IAGNKABDWhAAxrQwE0DwU/CyZEcF4Jr84jcPCKcOWtAAxrQgAY0oAENaEADwU/CyZEcF4Jr88B54DSgAQ1oQAMa0IAGNKABDdw0EPwknBzJcSG4No/IzSPCmbMGNKABDWhAAxrQgAY0EPwknBzJcSG4Ng+cB04DGtCABjSgAQ1oQAMa0MBNA8FPwsmRHBeCa/OI3DwinDlrQAMa0IAGNKABDWhAA8FPwsmRHBeCa/PAeeA0oAENaEADGtCABjSgAQ3cNBD8JJwcyXEhuDaPyM0jwpmzBjSgAQ1oQAMa0IAGNBD8JJwcyXEhuDYPnAdOAxrQgAY0oAENaEADGtDATQPBT8LJkRwXgmvziNw8Ipw5a0ADGtCABjSgAQ1oQAPBT8LJkRwXgmvzwHngNKABDWhAAxrQgAY0oAEN3DQQ/CScHMlxIbg2j8jNI8KZswY0oAENaEADGtCABjQQ/CScHMlxIbg2D5wHTgMa0IAGNKABDWhAAxrQwE0DwU/CyZEcF4Jr84jcPCKcOWtAAxrQgAY0oAENaEADwU/CyZEcF4Jr88B54DSgAQ1oQAMa0IAGNKABDdw0EPwknBzJcSG4No/IzSPCmbMGNKABDWhAAxrQgAY0EPwknBzJcSG4Ng+cB04DGtCABjSgAQ1oQAMa0MBNA8FPwsmRHBeCa/OI3DwinDlrQAMa0IAGNKABDWhAA8FPwsmRHBeCa/PAeeA0oAENaEADGtCABjSgAQ3cNBD8JJwcyXEhuDaPyM0jwpmzBjSgAQ1oQAMa0IAGNBD8JJwcyXEhuDYPnAdOAxrQgAY0oAENaEADGtDATQPBT8LJkRwXgmvziNw8Ipw5a0ADGtCABjSgAQ1oQAPBT8LJkRwXgmvzwHngNKABDWhAAxrQgAY0oAEN3DQQ/CScHMlxIbg2j8jNI8KZswY0oAENaEADGtCABjQQ/CScHMlxIbg2D5wHTgMa0IAGNKABDWhAAxrQwE0DwU/CyZEcF4Jr84jcPCKcOWtAAxrQgAY0oAENaEADwU/CyZEcF4Jr88B54DSgAQ1oQAMa0IAGNKABDdw0EPwknBzJcSG4No/IzSPCmbMGNKABDWhAAxrQgAY0EPwknBzJcSG4Ng+cB04DGtCABjSgAQ1oQAMa0MBNA8FPwsmRHBeCa/OI3DwinDlrQAMa0IAGNKABDWhAA8FPwsmRHBeCa/PAeeA0oAENaEADGtCABjSgAQ3cNBD8JJwcyXEhuDaPyM0jwpmzBjSgAQ1oQAMa0IAGNBD8JJwcyXEhuDYPnAdOAxrQgAY0oAENaEADGtDATQPBT8LJkRwXgmvziNw8Ipw5a0ADGtCABjSgAQ1oQAPBT8LJkRwXgmvzwHngNKABDWhAAxrQgAY0oAEN3DQQ/CScHMlxIbg2j8jNI8KZswY0oAENaEADGtCABjQQ/CScHMlxIbg2D5wHTgMa0IAGNKABDWhAAxrQwE0DwU/CyZEcF4Jr84jcPCKcOWtAAxrQgAY0oAENaEADwU/CyZEcF4Jr88B54DSgAQ1oQAMa0IAGNKABDdw0EPwknBzJcSG4No/IzSPCmbMGNKABDWhAAxrQgAY0EPwknBzJcSG4Ng+cB04DGtCABjSgAQ1oQAMa0MBNA8FPwsmRHBeCa/OI3DwinDlrQAMa0IAGNKABDWhAA8FPwsmRHBeCa/PAeeA0oAENaEADGtCABjSgAQ3cNBD8JJwcyXEhuDaPyM0jwpmzBjSgAQ1oQAMa0IAGNBD8JJwcyXEhuDYPnAdOAxrQgAY0oAENaEADGtDATQPBT8LJkRwXgmvziNw8Ipw5a0ADGtCABjSgAQ1oQAPBT8LJkRwXgmvzwHngNKABDWhAAxrQgAY0oAEN3DQQ/CScHMlxIbg2j8jNI8KZswY0oAENaEADGtCABjQQ/CScHMlxIbg2D5wHTgMa0IAGNKABDWhAAxrQwE0DwU/CyZEcF4Jr84jcPCKcOWtAAxrQgAY0oAENaEADwU/CyZEcF4Jr88B54DSgAQ1oQAMa0IAGNKABDdw0EPwknBzJcSG4No/IzSPCmbMGNKABDWhAAxrQgAY0EPwknBzJcSG4Ng+cB04DGtCABjSgAQ1oQAMa0MBNA8FPwsmRHBeCa/OI3DwinDlrQAMa0IAGNKABDWhAA8FPwsmRHBeCa/PAeeA0oAENaEADGtCABjSgAQ3cNBD8JJwcyXEhuDaPyM0jwpmzBjSgAQ1oQAMa0IAGNBD8JJwcyXEhuDYPnAdOAxrQgAY0oAENaEADGtDATQPBT8LJkRwXgmvziNw8Ipw5a0ADGtCABjSgAQ1oQAPBT8LJkRwXgmvzwHngNKABDWhAAxrQgAY0oAEN3DQQ/CScHMlxIbg2j8jNI8KZswY0oAENaEADGtCABjQQ/CScHMlxIbg2D5wHTgMa0IAGNKABDWhAAxrQwE0DwU/CyZEcF4Jr84jcPCKcOWtAAxrQgAY0oAENaEADwU/CyZEcF4Jr88B54DSgAQ1oQAMa0IAGNKABDdw0EPwknBzJcSG4No/IzSPCmbMGNKABDWhAAxrQgAY0EPwknBzJcSG4Ng+cB04DGtCABjSgAQ1oQAMa0MBNA8FPwsmRHBeCa/OI3DwinDlrQAMa0IAGNKABDWhAA8FPwsmRHBeCa/PAeeA0oAENaEADGtCABjSgAQ3cNBD8JJwcyXEhuDaPyM0jwpmzBjSgAQ1oQAMa0IAGNBD8JJwcyXEhuDYPnAdOAxrQgAY0oAENaEADGtDATQPBT8LJkRwXgmvziNw8Ipw5a0ADGtCABjSgAQ1oQAPBT8LJkRwXgmvzwHngNKABDWhAAxrQgAY0oAEN3DQQ/CScHMlxIbg2j8jNI8KZswY0oAENaEADGtCABjQQ/CScHMlxIbg2D5wHTgMa0IAGNKABDWhAAxrQwE0DwU/CyZEcF4Jr84jcPCKcOWtAAxrQgAY0oAENaEADwU/CyZEcF4Jr88B54DSgAQ1oQAMa0IAGNKABDdw0EPwknBzJcSG4No/IzSPCmbMGNKABDWhAAxrQgAY0EPwknBzJcSG4Ng+cB04DGtCABjSgAQ1oQAMa0MBNA8FPwsmRHBeCa/OI3DwinDlrQAMa0IAGNKABDWhAA8FPwsmRHBeCa/PAeeA0oAENaEADGtCABjSgAQ3cNBD8JJwcyXEhuDaPyM0jwpmzBjSgAQ1oQAMa0IAGNBD8JJwcyXEhuDYPnAdOAxrQgAY0oAENaEADGtDATQPBT8LJkRwXgmvziNw8Ipw5a0ADGtCABjSgAQ1oQAPBT8LJkRwXgmvzwHngNKABDWhAAxrQgAY0oAEN3DQQ/CScHMlxIbg2j8jNI8KZswY0oAENaEADGtCABjQQ/CScHMlxIbg2D5wHTgMa0IAGNKABDWhAAxrQwE0DwU/CyZEcF4Jr84jcPCKcOWtAAxrQgAY0oAENaEADwU/CyZEcF4Jr88B54DSgAQ1oQAMa0IAGNKABDdw0EPwknBzJcSG4No/IzSPCmbMGNKABDWhAAxrQgAY0EPwknBzJcSG4Ng+cB04DGtCABjSgAQ1oQAMa0MBNA8FPwsmRHBeCa/OI3DwinDlrQAMa0IAGNKABDWhAA8FPwsmRHBeCa/PAeeA0oAENaEADGtCABjSgAQ3cNBD8JJwcyXEhuDaPyM0jwpmzBjSgAQ1oQAMa0IAGNBD8JJwcyXEhuDYPnAdOAxrQgAY0oAENaEADGtDATQPBT8LJkRwXgmvziNw8Ipw5a0ADGtCABjSgAQ1oQAPBT8LJkRwXgmvzwHngNMmoNw8AACAASURBVKABDWhAAxrQgAY0oAEN3DQQ/CScHMlxIbg2j8jNI8KZswY0oAENaEADGtCABjQQ/CScHMlxIbg2D5wHTgMa0IAGNKABDWhAAxrQwE0DwU/CyZEcF4Jr84jcPCKcOWtAAxrQgAY0oAENaEADwU/CyZEcF4Jr88B54DSgAQ1oQAMa0IAGNKABDdw0EPwknBzJcSG4No/IzSPCmbMGNKABDWhAAxrQgAY0EPwknBzJcSG4Ng+cB04DGtCABjSgAQ1oQAMa0MBNA8FPwsmRHBeCa/OI3DwinDlrQAMa0IAGNKABDWhAA8FPwsmRHBeCa/PAeeA0oAENaEADGtCABjSgAQ3cNBD8JJwcyXEhuDaPyM0jwpmzBjSgAQ1oQAMa0IAGNBD8JJwcyXEhuDYPnAdOAxrQgAY0oAENaEADGtDATQPBT8LJkRwXgmvziNw8Ipw5a0ADGtCABjSgAQ1oQAPBT8LJkRwXgmvzwHngNKABDWhAAxrQgAY0oAEN3DQQ/CScHMlxIbg2j8jNI8KZswY0oAENaEADGtCABjQQ/CScHMlxIbg2D5wHTgMa0IAGNKABDWhAAxrQwE0DwU/CyZEcF4Jr84jcPCKcOWtAAxrQgAY0oAENaEADwU/CyZEcF4Jr88B54DSgAQ1oQAMa0IAGNKABDdw0EPwknBzJcSG4No/IzSPCmbMGNKABDWhAAxrQgAY0EPwknBzJcSG4Ng+cB04DGtCABjSgAQ1oQAMa0MBNA8FPwsmRHBeCa/OI3DwinDlrQAMa0IAGNKABDWhAA8FPwsmRHBeCa/PAeeA0oAENaEADGtCABjSgAQ3cNBD8JJwcyXEhuDaPyM0jwpmzBjSgAQ1oQAMa0IAGNBD8JJwcyXEhuDYPnAdOAxrQgAY0oAENaEADGtDATQPBT8LJkRwXgmvziNw8Ipw5a0ADGtCABjSgAQ1oQAPBT8LJkRwXgmvzwHngNKABDWhAAxrQgAY0oAEN3DQQ/CScHMlxIbg2j8jNI8KZswY0oAENaEADGtCABjQQ/CScHMlxIbg2D5wHTgMa0IAGNKABDWhAAxrQwE0DwU/CyZEcF4Jr84jcPCKcOWtAAxrQgAY0oAENaEADwU/CyZEcF4Jr88B54DSgAQ1oQAMa0IAGNKABDdw0EPwknBzJcSG4No/IzSPCmbMGNKABDWhAAxrQgAY0EPwknBzJcSG4Ng+cB04DGtCABjSgAQ1oQAMa0MBNA8FPwsmRHBeCa/OI3DwinDlrQAMa0IAGNKABDWhAA8FPwsmRHBeCa/PAeeA0oAENaEADGtCABjSgAQ3cNBD8JJwcyXEhuDaPyM0jwpmzBjSgAQ1oQAMa0IAGNBD8JJwcyXEhuDYPnAdOAxrQgAY0oAENaEADGtDATQPBT8LJkRwXgmvziNw8Ipw5a0ADGtCABjSgAQ1oQAPBT8LJkRwXgmvzwHngNKABDWhAAxrQgAY0oAEN3DQQ/CScHMlxIbg2j8jNI8KZswY0oAENaEADGtCABjQQ/CScHMlxIbg2D5wHTgMa0IAGNKABDWhAAxrQwE0DwU/CyZEcF4Jr84jcPCKcOWtAAxrQgAY0oAENaEADwU/CyZEcF4Jr88B54DSgAQ1oQAMa0IAGNKABDdw0EPwknBzJcSG4No/IzSPCmbMGNKABDWhAAxrQgAY0EPwknBzJcSG4Ng+cB04DGtCABjSgAQ1oQAMa0MBNA8FPwsmRHBeCa/OI3DwinDlrQAMa0IAGNKABDWhAA8FPwsmRHBeCa/PAeeA0oAENaEADGtCABjSgAQ3cNBD8JJwcyXEhuDaPyM0jwpmzBjSgAQ1oQAMa0IAGNBD8JJwcyXEhuDYPnAdOAxrQgAY0oAENaEADGtDATQPBT8LJkRwXgmvziNw8Ipw5a0ADGtCABjSgAQ1oQAPBT8LJkRwXgmvzwHngNKABDWhAAxrQgAY0oAEN3DQQ/CScHMlxIbg2j8jNI8KZswY0oAENaEADGtCABjQQ/CScHMlxIbg2D5wHTgMa0IAGNKABDWhAAxrQwE0DwU/CyZEcF4Jr84jcPCKcOWtAAxrQgAY0oAENaEADwU/CyZEcF4Jr88B54DSgAQ1oQAMa0IAGNKABDdw0EPwknBzJcSG4No/IzSPCmbMGNKABDWhAAxrQgAY0EPwknBzJcSG4Ng+cB04DGtCABjSgAQ1oQAMa0MBNA8FPwsmRHBeCa/OI3DwinDlrQAMa0IAGNKABDWhAA8FPwsmRHBeCa/PAeeA0oAENaEADGtCABjSgAQ3cNBD8JJwcyXEhuDaPyM0jwpmzBjSgAQ1oQAMa0IAGNBD8JJwcyXEhuDYPnAdOAxrQgAY0oAENaEADGtDATQPBT8LJkRwXgmvziNw8Ipw5a0ADGtCABjSgAQ1oQAPBT8LJkRwXgmvzwHngNKABDWhAAxrQgAY0oAEN3DQQ/CScHMlxIbg2j8jNI8KZswY0oAENaEADGtCABjQQ/CScHMlxIbg2D5wHTgMa0IAGNKABDWhAAxrQwE0DwU/CyZEcF4Jr84jcPCKcOWtAAxrQgAY0oAENaEADwU/CyZEcF4Jr88B54DSgAQ1oQAMa0IAGNKABDdw0EPwknBzJcSG4No/IzSPCmbMGNKABDWhAAxrQgAY0EPwknBzJcSG4Ng+cB04DGtCABjSgAQ1oQAMa0MBNA8FPwsmRHBeCa/OI3DwinDlrQAMa0IAGNKABDWhAA8FPwsmRHBeCa/PAeeA0oAENaEADGtCABjSgAQ3cNBD8JJwcyXEhuDaPyM0jwpmzBjSgAQ1oQAMa0IAGNBD8JJwcyXEhuDYPnAdOAxrQgAY0oAENaEADGtDATQPBT8LJkRwXgmvziNw8Ipw5a0ADGtCABjSgAQ1oQAPBT8LJkRwXgmvzwHngNKABDWhAAxrQgAY0oAEN3DQQ/CScHMlxIbg2j8jNI8KZswY0oAENaEADGtCABjQQ/CScHMlxIbg2D5wHTgMa0IAGNKABDWhAAxrQwE0DwU/CyZEcF4Jr84jcPCKcOWtAAxrQgAY0oAENaEADwU/CyZEcF4Jr88B54DSgAQ1oQAMa0IAGNKABDdw0EPwknBzJcSG4No/IzSPCmbMGNKABDWhAAxrQgAY0EPwknBzJcSG4Ng+cB04DGtCABjSgAQ1oQAMa0MBNA8FPwsmRHBeCa/OI3DwinDlrQAMa0IAGNKABDWhAA8FPwsmRHBeCa/PAeeA0oAENaEADGtCABjSgAQ3cNBD8JJwcyXEhuDaPyM0jwpmzBjSgAQ1oQAMa0IAGNBD8JJwcyXEhuDYPnAdOAxrQgAY0oAENaEADGtDATQPBT8LJkRwXgmvziNw8Ipw5a0ADGtCABjSgAQ1oQAPBT8LJkRwXgmvzwHngNKABDWhAAxrQgAY0oAEN3DQQ/CScHMlxIbg2j8jNI8KZswY0oAENaEADGtCABjQQ/CScHMlxIbg2D5wHTgMa0IAGNKABDWhAAxrQwE0DwU/CyZEcF4Jr84jcPCKcOWtAAxrQgAY0oAENaEADwU/CyZEcF4Jr88B54DSgAQ1oQAMa0IAGNKABDdw0EPwknBzJcSG4No/IzSPCmbMGNKABDWhAAxrQgAY0EPwknBzJcSG4Ng+cB04DGtCABjSgAQ1oQAMa0MBNA8FPwsmRHBeCa/OI3DwinDlrQAMa0IAGNKABDWhAA8FPwsmRHBeCa/PAeeA0oAENaEADGtCABjSgAQ3cNBD8JJwcyXEhuDaPyM0jwpmzBjSgAQ1oQAMa0IAGNBD8JJwcyXEhuDYPnAdOAxrQgAY0oAENaEADGtDATQPBT8LJkRwXgmvziNw8Ipw5a0ADGtCABjSgAQ1oQAPBT8LJkRwXgmvzwHngNKABDWhAAxrQgAY0oAEN3DQQ/CScHMlxIbg2j8jNI8KZswY0oAENaEADGtCABjQQ/CScHMlxIbg2D5wHTgMa0IAGNKABDWhAAxrQwE0DwU/CyZEcF4Jr84jcPCKcOWtAAxrQgAY0oAENaEADwU/CyZEcF4Jr88B54DSgAQ1oQAMa0IAGNKABDdw0EPwknBzJcSG4No/IzSPCmbMGNKABDWhAAxrQgAY0EPwknBzJcSG4Ng+cB04DGtCABjSgAQ1oQAMa0MBNA8FPwsmRHBeCa/OI3DwinDlrQAMa0IAGNKABDWhAA8FPwsmRHBeCa/PAeeA0oAENaEADGtCABjSgAQ3cNBD8JJwcyXEhuDaPyM0jwpmzBjSgAQ1oQAMa0IAGNBD8JJwcyXEhuDYPnAdOAxrQgAY0oAENaEADGtDATQPBT8LJkRwXgmvziNw8Ipw5a0ADGtCABjSgAQ1oQAPBT8LJkRwXgmvzwHngNKABDWhAAxrQgAY0oAEN3DQQ/CScHMlxIbg2j8jNI8KZswY0oAENaEADGtCABjQQ/CScHMlxIbg2D5wHTgMa0IAGNKABDWhAAxrQwE0DwU/CyZEcF4Jr84jcPCKcOWtAAxrQgAY0oAENaEADwU/CyZEcF4Jr88B54DSgAQ1oQAMa0IAGNKABDdw0EPwknBzJcSG4No/IzSPCmbMGNKABDWhAAxrQgAY0EPwknBzJcSG4Ng+cB04DGtCABjSgAQ1oQAMa0MBNA8FPwsmRHBeCa/OI3DwinDlrQAMa0IAGNKABDWhAA8FPwsmRHBeCa/PAeeA0oAENaEADGtCABjSgAQ3cNBD8JJwcyXEhuDaPyM0jwpmzBjSgAQ1oQAMa0IAGNBD8JJwcyXEhuDYPnAdOAxrQgAY0oAENaEADGtDATQPBT8LJkRwXgmvziNw8Ipw5a0ADGtCABjSgAQ1oQAPBT8LJkRwXgmvzwHngNKABDWhAAxrQgAY0oAEN3DQQ/CScHMlxIbg2j8jNI8KZswY0oAENaEADGtCABjQQ/CScHMlxIbg2D5wHTgMa0IAGNKABDWhAAxrQwE0DwU/CyZEcF4Jr84jcPCKcOWtAAxrQgAY0oAENaEADwU/CyZEcF4Jr88B54DSgAQ1oQAMa0IAGNKABDdw0EPwknBzJcSG4No/IzSPCmbMGNKABDWhAAxrQgAY0EPwknBzJcSG4Ng+cB04DGtCABjSgAQ1oQAMa0MBNA8FPwsmRHBeCa/OI3DwinDlrQAMa0IAGNKABDWhAA8FPwsmRHBeCa/PAeeA0oAENaEADGtCABjSgAQ3cNBD8JJwcyXEhuDaPyM0jwpmzBjSgAQ1oQAMa0IAGNBD8JJwcyXEhuDYPnAdOAxrQgAY0oAENaEADGtDATQPBT8LJkRwXgmvziNw8Ipw5a0ADGtCABjSgAQ1oQAPBT8LJkRwXgmvzwHngNKABDWhAAxrQgAY0oAEN3DQQ/CScHMlxIbg2j8jNI8KZswY0oAENaEADGtCABjQQ/CScHMlxIbg2D5wHTgMa0IAGNKABDWhAAxrQwE0DwU/CyZEcF4Jr84jcPCKcOWtAAxrQgAY0oAENaEADwU/CyZEcF4Jr88B54DSgAQ1oQAMa0IAGNKABDdw0EPwknBzJcSG4No/IzSPCmbMGNKABDWhAAxrQgAY0EPwknBzJcSG4Ng+cB04DGtCABjSgAQ1oQAMa0MBNA8FPwsmRHBeCa/OI3DwinDlrQAMa0IAGNKABDWhAA8FPwsmRHBeCa/PAeeA0oAENaEADGtCABjSgAQ3cNBD8JJwcyXEhuDaPyM0jwpmzBjSgAQ1oQAMa0IAGNBD8JJwcyXEhuDYPnAdOAxrQgAY0oAENaEADGtDATQPBT8LJkRwXgmvziNw8Ipw5a0ADGtCABjSgAQ1oQAPBT8LJkRwXgmvzwHngNKABDWhAAxrQgAY0oAEN3DQQ/CScHMlxIbg2j8jNI8KZswY0oAENaEADGtCABjQQ/CScHMlxIbg2D5wHTgMa0IAGNKABDWhAAxrQwE0DwU/CyZEcF4Jr84jcPCKcOWtAAxrQgAY0oAENaEADwU/CyZEcF4Jr88B54DSgAQ1oQAMa0IAGNKABDdw0EPwknBzJcSG4No/IzSPCmbMGNKABDWhAAxrQgAY0EPwknBzJcSG4Ng+cB04DGtCABjSgAQ1oQAMa0MBNA8FPwsmRHBeCa/OI3DwinDlrQAMa0IAGNKABDWhAA8FPwsmRHBeCa/PAeeA0oAENaEADGtCABjSgAQ3cNBD8JJwcyXEhuDaPyM0jwpmzBjSgAQ1oQAMa0IAGNBD8JJwcyXEhuDYPnAdOAxrQgAY0oAENaEADGtDATQPBT8LJkRwXgmvziNw8Ipw5a0ADGtCABjSgAQ1oQAPBT8LJkRwXgmvzwHngNKABDWhAAxrQgAY0oAEN3DQQ/CScHMlxIbg2j8jNI8KZswY0oAENaEADGtCABjQQ/CScHMlxIbg2D5wHTgMa0IAGNKABDWhAAxrQwE0DwU/CyZEcF4Jr84jcPCKcOWtAAxrQgAY0oAENaEADwU/CyZEcF4Jr88B54DSgAQ1oQAMa0IAGNKABDdw0EPwknBzJcSG4No/IzSPCmbMGNKABDWhAAxrQgAY0EPwknBzJcSG4Ng+cB04DGtCABjSgAQ1oQAMa0MBNA8FPwsmRHBeCa/OI3DwinDlrQAMa0IAGNKABDWhAA8FPwsmRHBeCa/PAeeA0oAENaEADGtCABjSgAQ3cNBD8JJwcyXEhuDaPyM0jwpmzBjSgAQ1oQAMa0IAGNBD8JJwcyXEhuDYPnAdOAxrQgAY0oAENaEADGtDATQPBT8LJkRwXgmvziNw8Ipw5a0ADGtCABjSgAQ1oQAPBT8LJkRwXgmvzwHngNKABDWhAAxrQgAY0oAEN3DQQ/CScHMlxIbg2j8jNI8KZswY0oAENaEADGtCABjQQ/CScHMlxIbg2D5wHTgMa0IAGNKABDWhAAxrQwE0DwU/CyZEcF4Jr84jcPCKcOWtAAxrQgAY0oAENaEADwU/CyZEcF4Jr88B54DSgAQ1oQAMa0IAGNKABDdw0EPwknBzJcSG4No/IzSPCmbMGNKABDWhAAxrQgAY0EPwknBzJcWFybYYmQIAAAQIECBAgQIAAAQIdAceFzi5MQoAAAQIECBAgQIAAAQIEJgUcFybXZmgCBAgQIECAAAECBAgQINARcFzo7MIkBAgQIECAAAECBAgQIEBgUsBxYXJthiZAgAABAgQIECBAgAABAh0Bx4XOLkxCgAABAgQIECBAgAABAgQmBRwXJtdmaAIECBAgQIAAAQIECBAg0BFwXOjswiQECBAgQIAAAQIECBAgQGBSwHFhcm2GJkCAAAECBAgQIECAAAECHQHHhc4uTEKAAAECBAgQIECAAAECBCYFHBcm12ZoAgQIECBAgAABAgQIECDQEXBc6OzCJAQIECBAgAABAgQIECBAYFLAcWFybYYmQIAAAQIECBAgQIAAAQIdAceFzi5MQoAAAQIECBAgQIAAAQIEJgUcFybXZmgCBAgQIECAAAECBAgQINARcFzo7MIkBAgQIECAAAECBAgQIEBgUsBxYXJthiZAgAABAgQIECBAgAABAh0Bx4XOLkxCgAABAgQIECBAgAABAgQmBRwXJtdmaAIECBAgQIAAAQIECBAg0BFwXOjswiQECBAgQIAAAQIECBAgQGBSwHFhcm2GJkCAAAECBAgQIECAAAECHQHHhc4uTEKAAAECBAgQIECAAAECBCYFHBcm12ZoAgQIECBAgAABAgQIECDQEXBc6OzCJAQIECBAgAABAgQIECBAYFLAcWFybYYmQIAAAQIECBAgQIAAAQIdAceFzi5MQoAAAQIECBAgQIAAAQIEJgUcFybXZmgCBAgQIECAAAECBAgQINARcFzo7MIkBAgQIECAAAECBAgQIEBgUsBxYXJthiZAgAABAgQIECBAgAABAh0Bx4XOLkxCgAABAgQIECBAgAABAgQmBRwXJtdmaAIECBAgQIAAAQIECBAg0BFwXOjswiQECBAgQIAAAQIECBAgQGBSwHFhcm2GJkCAAAECBAgQIECAAAECHQHHhc4uTEKAAAECBAgQIECAAAECBCYFHBcm12ZoAgQIECBAgAABAgQIECDQEXBc6OzCJAQIECBAgAABAgQIECBAYFLAcWFybYYmQIAAAQIECBAgQIAAAQIdAceFzi5MQoAAAQIECBAgQIAAAQIEJgUcFybXZmgCBAgQIECAAAECBAgQINARcFzo7MIkBAgQIECAAAECBAgQIEBgUsBxYXJthiZAgAABAgQIECBAgAABAh0Bx4XOLkxCgAABAgQIECBAgAABAgQmBRwXJtdmaAIECBAgQIAAAQIECBAg0BFwXOjswiQECBAgQIAAAQIECBAgQGBSwHFhcm2GJkCAAAECBAgQIECAAAECHQHHhc4uTEKAAAECBAgQIECAAAECBCYFHBcm12ZoAgQIECBAgAABAgQIECDQEXBc6OzCJAQIECBAgAABAgQIECBAYFLAcWFybYYmQIAAAQIECBAgQIAAAQIdAceFzi5MQoAAAQIECBAgQIAAAQIEJgUcFybXZmgCBAgQIECAAAECBAgQINARcFzo7MIkBAgQIECAAAECBAgQIEBgUsBxYXJthiZAgAABAgQIECBAgAABAh0Bx4XOLkxCgAABAgQIECBAgAABAgQmBRwXJtdmaAIECBAgQIAAAQIECBAg0BFwXOjswiQECBAgQIAAAQIECBAgQGBSwHFhcm2GJkCAAAECBAgQIECAAAECHQHHhc4uTEKAAAECBAgQIECAAAECBCYFHBcm12ZoAgQIECBAgAABAgQIECDQEXBc6OzCJAQIECBAgAABAgQIECBAYFLAcWFybYYmQIAAAQIECBAgQIAAAQIdAceFzi5MQoAAAQIECBAgQIAAAQIEJgUcFybXZmgCBAgQIECAAAECBAgQINARcFzo7MIkBAgQIECAAAECBAgQIEBgUsBxYXJthiZAgAABAgQIECBAgAABAh0Bx4XOLkxCgAABAgQIECBAgAABAgQmBRwXJtdmaAIECBAgQIAAAQIECBAg0BFwXOjswiQECBAgQIAAAQIECBAgQGBSwHFhcm2GJkCAAAECBAgQIECAAAECHQHHhc4uTEKAAAECBAgQIECAAAECBCYFHBcm12ZoAgQIECBAgAABAgQIECDQEXBc6OzCJAQIECBAgAABAgQIECBAYFLAcWFybYYmQIAAAQIECBAgQIAAAQIdAceFzi5MQoAAAQIECBAgQIAAAQIEJgUcFybXZmgCBAgQIECAAAECBAgQINARcFzo7MIkBAgQIECAAAECBAgQIEBgUsBxYXJthiZAgAABAgQIECBAgAABAh0Bx4XOLkxCgAABAgQIECBAgAABAgQmBRwXJtdmaAIECBAgQIAAAQIECBAg0BFwXOjswiQECBAgQIAAAQIECBAgQGBSwHFhcm2GJkCAAAECBAgQIECAAAECHQHHhc4uTEKAAAECBAgQIECAAAECBCYFHBcm12ZoAgQIECBAgAABAgQIECDQEXBc6OzCJAQIECBAgAABAgQIECBAYFLAcWFybYYmQIAAAQIECBAgQIAAAQIdAceFzi5MQoAAAQIECBAgQIAAAQIEJgUcFybXZmgCBAgQIECAAAECBAgQINARcFzo7MIkBAgQIECAAAECBAgQIEBgUsBxYXJthiZAgAABAgQIECBAgAABAh0Bx4XOLkxCgAABAgQIECBAgAABAgQmBRwXJtdmaAIECBAgQIAAAQIECBAg0BFwXOjswiQECBAgQIAAAQIECBAgQGBSwHFhcm2GJkCAAAECBAgQIECAAAECHQHHhc4uTEKAAAECBAgQIECAAAECBCYFHBcm12ZoAgQIECBAgAABAgQIECDQEXBc6OzCJAQIECBAgAABAgQIECBAYFLAcWFybYYmQIAAAQIECBAgQIAAAQIdAceFzi5MQoAAAQIECBAgQIAAAQIEJgUcFybXZmgCBAgQIECAAAECBAgQINARcFzo7MIkBAgQIECAAAECBAgQIEBgUsBxYXJthiZAgAABAgQIECBAgAABAh0Bx4XOLkxCgAABAgQIECBAgAABAgQmBRwXJtdmaAIECBAgQIAAAQIECBAg0BFwXOjswiQECBAgQIAAAQIECBAgQGBSwHFhcm2GJkCAAAECBAgQIECAAAECHQHHhc4uTEKAAAECBAgQIECAAAECBCYFHBcm12ZoAgQIECBAgAABAgQIECDQEXBc6OzCJAQIECBAgAABAgQIECBAYFLAcWFybYYmQIAAAQIECBAgQIAAAQIdAceFzi5MQoAAAQIECBAgQIAAAQIEJgUcFybXZmgCBAgQIECAAAECBAgQINARcFzo7MIkBAgQIECAAAECBAgQIEBgUsBxYXJthiZAgAABAgQIECBAgAABAh0Bx4XOLkxCgAABAgQIECBAgAABAgQmBRwXJtdmaAIECBAgQIAAAQIECBAg0BFwXOjswiQECBAgQIAAAQIECBAgQGBSwHFhcm2GJkCAAAECBAgQIECAAAECHQHHhc4uTEKAAAECBAgQIECAAAECBCYFHBcm12ZoAgQIECBAgAABAgQIECDQEXBc6OzCJAQIECBAgAABAgQIECBAYFLAcWFybYYmQIAAAQIECBAgQIAAAQIdAceFzi5MQoAAAQIECBAgQIAAAQIEJgUcFybXZmgCBAgQIECAAAECBAgQINARcFzo7MIkBAgQIECAAAECBAgQIEBgUsBxYXJthiZAgAABAgQIECBAgAABAh0Bx4XOLkxCgAABAgQIECBAgAABAgQmBRwXJtdmaAIECBAgQIAAAQIECBAg0BFwXOjswiQECBAgQIAAAQIECBAgQGBSwHFhcm2GJkCAAAECBAgQIECAAAECHQHHhc4uTEKAAAECBAgQIECAAAECBCYFHBcm12ZoAgQIECBAgAABAgQIECDQEXBc6OzCJAQIECBAgAABAgQIECBAYFLAvoxHxwAAIABJREFUcWFybYYmQIAAAQIECBAgQIAAAQIdAceFzi5MQoAAAQIECBAgQIAAAQIEJgUcFybXZmgCBAgQIECAAAECBAgQINARcFzo7MIkBAgQIECAAAECBAgQIEBgUsBxYXJthiZAgAABAgQIECBAgAABAh0Bx4XOLkxCgAABAgQIECBAgAABAgQmBRwXJtdmaAIECBAgQIAAAQIECBAg0BFwXOjswiQECBAgQIAAAQIECBAgQGBSwHFhcm2GJkCAAAECBAgQIECAAAECHQHHhc4uTEKAAAECBAgQIECAAAECBCYFHBcm12ZoAgQIECBAgAABAgQIECDQEXBc6OzCJAQIECBAgAABAgQIECBAYFLAcWFybYYmQIAAAQIECBAgQIAAAQIdAceFzi5MQoAAAQIECBAgQIAAAQIEJgUcFybXZmgCBAgQIECAAAECBAgQINARcFzo7MIkBAgQIECAAAECBAgQIEBgUsBxYXJthiZAgAABAgQIECBAgAABAh0Bx4XOLkxCgAABAgQIECBAgAABAgQmBRwXJtdmaAIECBAgQIAAAQIECBAg0BFwXOjswiQECBAgQIAAAQIECBAgQGBSwHFhcm2GJkCAAAECBAgQIECAAAECHQHHhc4uTEKAAAECBAgQIECAAAECBCYFHBcm12ZoAgQIECBAgAABAgQIECDQEXBc6OzCJAQIECBAgAABAgQIECBAYFLAcWFybYYmQIAAAQIECBAgQIAAAQIdAceFzi5MQoAAAQIECBAgQIAAAQIEJgUcFybXZmgCBAgQIECAAAECBAgQINARcFzo7MIkBAgQIECAAAECBAgQIEBgUsBxYXJthiZAgAABAgQIECBAgAABAh0Bx4XOLkxCgAABAgQIECBAgAABAgQmBRwXJtdmaAIECBAgQIAAAQIECBAg0BFwXOjswiQECBAgQIAAAQIECBAgQGBSwHFhcm2GJkCAAAECBAgQIECAAAECHQHHhc4uTEKAAAECBAgQIECAAAECBCYFHBcm12ZoAgQIECBAgAABAgQIECDQEXBc6OzCJAQIECBAgAABAgQIECBAYFLAcWFybYYmQIAAAQIECBAgQIAAAQIdAceFzi5MQoAAAQIECBAgQIAAAQIEJgUcFybXZmgCBAgQIECAAAECBAgQINARcFzo7MIkBAgQIECAAAECBAgQIEBgUsBxYXJthiZAgAABAgQIECBAgAABAh0Bx4XOLkxCgAABAgQIECBAgAABAgQmBRwXJtdmaAIECBAgQIAAAQIECBAg0BFwXOjswiQECBAgQIAAAQIECBAgQGBSwHFhcm2GJkCAAAECBAgQIECAAAECHQHHhc4uTEKAAAECBAgQIECAAAECBCYFHBcm12ZoAgQIECBAgAABAgQIECDQEXBc6OzCJAQIECBAgAABAgQIECBAYFLAcWFybYYmQIAAAQIECBAgQIAAAQIdAceFzi5MQoAAAQIECBAgQIAAAQIEJgUcFybXZmgCBAgQIECAAAECBAgQINARcFzo7MIkBAgQIECAAAECBAgQIEBgUsBxYXJthiZAgAABAgQIECBAgAABAh0Bx4XOLkxCgAABAgQIECBAgAABAgQmBRwXJtdmaAIECBAgQIAAAQIECBAg0BFwXOjswiQECBAgQIAAAQIECBAgQGBSwHFhcm2GJkCAAAECBAgQIECAAAECHQHHhc4uTEKAAAECBAgQIECAAAECBCYFHBcm12ZoAgQIECBAgAABAgQIECDQEXBc6OzCJAQIECBAgAABAgQIECBAYFLAcWFybYYmQIAAAQIECBAgQIAAAQIdAceFzi5MQoAAAQIECBAgQIAAAQIEJgUcFybXZmgCBAgQIECAAAECBAgQINARcFzo7MIkBAgQIECAAAECBAgQIEBgUsBxYXJthiZAgAABAgQIECBAgAABAh0Bx4XOLkxCgAABAgQIECBAgAABAgQmBRwXJtdmaAIECBAgQIAAAQIECBAg0BFwXOjswiQECBAgQIAAAQIECBAgQGBSwHFhcm2GJkCAAAECBAgQIECAAAECHQHHhc4uTEKAAAECBAgQIECAAAECBCYFHBcm12ZoAgQIECBAgAABAgQIECDQEXBc6OzCJAQIECBAgAABAgQIECBAYFLAcWFybYYmQIAAAQIECBAgQIAAAQIdAceFzi5MQoAAAQIECBAgQIAAAQIEJgUcFybXZmgCBAgQIECAAAECBAgQINARcFzo7MIkBAgQIECAAAECBAgQIEBgUsBxYXJthiZAgAABAgQIECBAgAABAh0Bx4XOLkxCgAABAgQIECBAgAABAgQmBRwXJtdmaAIECBAgQIAAAQIECBAg0BFwXOjswiQECBAgQIAAAQIECBAgQGBSwHFhcm2GJkCAAAECBAgQIECAAAECHQHHhc4uTEKAAAECBAgQIECAAAECBCYFHBcm12ZoAgQIECBAgAABAgQIECDQEXBc6OzCJAQIECBAgAABAgQIECBAYFLAcWFybYYmQIAAAQIECBAgQIAAAQIdAceFzi5MQoAAAQIECBAgQIAAAQIEJgUcFybXZmgCBAgQIECAAAECBAgQINARcFzo7MIkBAgQIECAAAECBAgQIEBgUsBxYXJthiZAgAABAgQIECBAgAABAh0Bx4XOLkxCgAABAgQIECBAgAABAgQmBRwXJtdmaAIECBAgQIAAAQIECBAg0BFwXOjswiQECBAgQIAAAQIECBAgQGBSwHFhcm2GJkCAAAECBAgQIECAAAECHQHHhc4uTEKAAAECBAgQIECAAAECBCYFHBcm12ZoAgQIECBAgAABAgQIECDQEXBc6OzCJAQIECBAgAABAgQIECBAYFLAcWFybYYmQIAAAQIECBAgQIAAAQIdAceFzi5MQoAAAQIECBAgQIAAAQIEJgUcFybXZmgCBAgQIECAAAECBAgQINARcFzo7MIkBAgQIECAAAECBAgQIEBgUsBxYXJthiZAgAABAgQIECBAgAABAh0Bx4XOLkxCgAABAgQIECBAgAABAgQmBRwXJtdmaAIECBAgQIAAAQIECBAg0BFwXOjswiQECBAgQIAAAQIECBAgQGBSwHFhcm2GJkCAAAECBAgQIECAAAECHQHHhc4uTEKAAAECBAgQIECAAAECBCYFHBcm12ZoAgQIECBAgAABAgQIECDQEXBc6OzCJAQIECBAgAABAgQIECBAYFLAcWFybYYmQIAAAQIECBAgQIAAAQIdAceFzi5MQoAAAQIECBAgQIAAAQIEJgUcFybXZmgCBAgQIECAAAECBAgQINARcFzo7MIkBAgQIECAAAECBAgQIEBgUsBxYXJthiZAgAABAgQIECBAgAABAh0Bx4XOLkxCgAABAgQIECBAgAABAgQmBRwXJtdmaAIECBAgQIAAAQIECBAg0BFwXOjswiQECBAgQIAAAQIECBAgQGBSwHFhcm2GJkCAAAECBAgQIECAAAECHQHHhc4uTEKAAAECBAgQIECAAAECBCYFHBcm12ZoAgQIECBAgAABAgQIECDQEXBc6OzCJAQIECBAgAABAgQIECBAYFLAcWFybYYmQIAAAQIECBAgQIAAAQIdAceFzi5MQoAAAQIECBAgQIAAAQIEJgUcFybXZmgCBAgQIECAAAECBAgQINARcFzo7MIkBAgQIECAAAECBAgQIEBgUsBxYXJthiZAgAABAgQIECBAgAABAh0Bx4XOLkxCgAABAgQIECBAgAABAgQmBRwXJtdmaAIECBAgQIAAAQIECBAg0BFwXOjswiQECBAgQIAAAQIECBAgQGBSwHFhcm2GJkCAAAECBAgQIECAAAECHQHHhc4uTEKAAAECBAgQIECAAAECBCYFHBcm12ZoAgQIECBAgAABAgQIECDQEXBc6OzCJAQIECBAgAABAgQIECBAYFLAcWFybYYmQIAAAQIECBAgQIAAAQIdAceFzi5MQoAAAQIECBAgQIAAAQIEJgUcFybXZmgCBAgQIECAAAECBAgQINARcFzo7MIkBAgQIECAAAECBAgQIEBgUsBxYXJthiZAgAABAgQIECBAgAABAh0Bx4XOLkxCgAABAgQIECBAgAABAgQmBRwXJtdmaAIECBAgQIAAAQIECBAg0BFwXOjswiQECBAgQIAAAQIECBAgQGBSwHFhcm2GJkCAAAECBAgQIECAAAECHQHHhc4uTEKAAAECBAgQIECAAAECBCYFHBcm12ZoAgQIECBAgAABAgQIECDQEXBc6OzCJAQIECBAgAABAgQIECBAYFLAcWFybYYmQIAAAQIECBAgQIAAAQIdAceFzi5MQoAAAQIECBAgQIAAAQIEJgUcFybXZmgCBAgQIECAAAECBAgQINARcFzo7MIkBAgQIECAAAECBAgQIEBgUsBxYXJthiZAgAABAgQIECBAgAABAh0Bx4XOLkxCgAABAgQIECBAgAABAgQmBRwXJtdmaAIECBAgQIAAAQIECBAg0BFwXOjswiQECBAgQIAAAQIECBAgQGBSwHFhcm2GJkCAAAECBAgQIECAAAECHQHHhc4uTEKAAAECBAgQIECAAAECBCYFHBcm12ZoAgQIECBAgAABAgQIECDQEXBc6OzCJAQIECBAgAABAgQIECBAYFLAcWFybYYmQIAAAQIECBAgQIAAAQIdAceFzi5MQoAAAQIECBAgQIAAAQIEJgUcFybXZmgCBAgQIECAAAECBAgQINARcFzo7MIkBAgQIECAAAECBAgQIEBgUsBxYXJthiZAgAABAgQIECBAgAABAh0Bx4XOLkxCgAABAgQIECBAgAABAgQmBRwXJtdmaAIECBAgQIAAAQIECBAg0BFwXOjswiQECBAgQIAAAQIECBAgQGBSwHFhcm2GJkCAAAECBAgQIECAAAECHQHHhc4uTEKAAAECBAgQIECAAAECBCYFHBcm12ZoAgQIECBAgAABAgQIECDQEXBc6OzCJAQIECBAgAABAgQIECBAYFLAcWFybYYmQIAAAQIECBAgQIAAAQIdAceFzi5MQoAAAQIECBAgQIAAAQIEJgUcFybXZmgCBAgQIECAAAECBAgQINARcFzo7MIkBAgQIECAAAECBAgQIEBgUsBxYXJthiZAgAABAgQIECBAgAABAh0Bx4XOLkxCgAABAgQIECBAgAABAgQmBRwXJtdmaAIECBAgQIAAAQIECBAg0BFwXOjswiQECBAgQIAAAQIECBAgQGBSwHFhcm2GJkCAAAECBAgQIECAAAECHQHHhc4uTEKAAAECBAgQIECAAAECBCYFHBcm12ZoAgQIECBAgAABAgQIECDQEXBc6OzCJAQIECBAgAABAgQIECBAYFLAcWFybYYmQIAAAQIECBAgQIAAAQIdAceFzi5MQoAAAQIECBAgQIAAAQIEJgUcFybXZmgCBAgQIECAAAECBAgQINARcFzo7MIkBAgQIECAAAECBAgQIEBgUsBxYXJthiZAgAABAgQIECBAgAABAh0Bx4XOLkxCgAABAgQIECBAgAABAgQmBRwXJtdmaAIECBAgQIAAAQIECBAg0BFwXOjswiQECBAgQIAAAQIECBAgQGBSwHFhcm2GJkCAAAECBAgQIECAAAECHQHHhc4uTEKAAAECBAgQIECAAAECBCYFHBcm12ZoAgQIECBAgAABAgQIECDQEXBc6OzCJAQIECBAgAABAgQIECBAYFLAcWFybYYmQIAAAQIECBAgQIAAAQIdAceFzi5MQoAAAQIECBAgQIAAAQIEJgUcFybXZmgCBAgQIECAAAECBAgQINARcFzo7MIkBAgQIECAAAECBAgQIEBgUsBxYXJthiZAgAABAgQIECBAgAABAh0Bx4XOLkxCgAABAgQIECBAgAABAgQmBRwXJtdmaAIECBAgQIAAAQIECBAg0BFwXOjswiQECBAgQIAAAQIECBAgQGBSwHFhcm2GJkCAAAECBAgQIECAAAECHQHHhc4uTEKAAAECBAgQIECAAAECBCYFHBcm12ZoAgQIECBAgAABAgQIECDQEXBc6OzCJAQIECBAgAABAgQIECBAYFLAcWFybYYmQIAAAQIECBAgQIAAAQIdAceFzi5MQoAAAQIECBAgQIAAAQIEJgUcFybXZmgCBAgQIECAAAECBAgQINARcFzo7MIkBAgQIECAAAECBAgQIEBgUsBxYXJthiZAgAABAgQIECBAgAABAh0Bx4XOLkxCgAABAgQIECBAgAABAgQmBRwXJtdmaAIECBAgQIAAAQIECBAg0BFwXOjswiQECBAgQIAAAQIECBAgQGBSwHFhcm2GJkCAAAECBAgQIECAAAECHQHHhc4uTEKAAAECBAgQIECAAAECBCYFHBcm12ZoAgQIECBAgAABAgQIECDQEXBc6OzCJAQIECBAgAABAgQIECBAYFLAcWFybYYmQIAAAQIECBAgQIAAAQIdAceFzi5MQoAAAQIECBAgQIAAAQIEJgUcFybXZmgCBAgQIECAAAECBAgQINARcFzo7MIkBAgQIECAAAECBAgQIEBgUsBxYXJthiZAgAABAgQIECBAgAABAh0Bx4XOLkxCgAABAgQIECBAgAABAgQmBRwXJtdmaAIECBAgQIAAAQIECBAg0BFwXOjswiQECBAgQIAAAQIECBAgQGBSwHFhcm2GJkCAAAECBAgQIECAAAECHQHHhc4uTEKAAAECBAgQIECAAAECBCYFHBcm12ZoAgQIECBAgAABAgQIECDQEXBc6OzCJAQIECBAgAABAgQIECBAYFLAcWFybYYmQIAAAQIECBAgQIAAAQIdAceFzi5MQoAAAQIECBAgQIAAAQIEJgUcFybXZmgCBAgQIECAAAECBAgQINARcFzo7MIkBAgQIECAAAECBAgQIEBgUsBxYXJthiZAgAABAgQIECBAgAABAh0Bx4XOLkxCgAABAgQIECBAgAABAgQmBRwXJtdmaAIECBAgQIAAAQIECBAg0BFwXOjswiQECBAgQIAAAQIECBAgQGBSwHFhcm2GJkCAAAECBAgQIECAAAECHQHHhc4uTEKAAAECBAgQIECAAAECBCYFHBcm12ZoAgQIECBAgAABAgQIECDQEXBc6OzCJAQIECBAgAABAgQIECBAYFLAcWFybYYmQIAAAQIECBAgQIAAAQIdAceFzi5MQoAAAQIECBAgQIAAAQIEJgUcFybXZmgCBAgQIECAAAECBAgQINARcFzo7MIkBAgQIECAAAECBAgQIEBgUsBxYXJthiZAgAABAgQIECBAgAABAh0Bx4XOLkxCgAABAgQIECBAgAABAgQmBRwXJtdmaAIECBAgQIAAAQIECBAg0BFwXOjswiQECBAgQIAAAQIECBAgQGBSwHFhcm2GJkCAAAECBAgQIECAAAECHQHHhc4uTEKAAAECBAgQIECAAAECBCYFHBcm12ZoAgQIECBAgAABAgQIECDQEXBc6OzCJAQIECBAgAABAgQIECBAYFLAcWFybYYmQIAAAQIECBAgQIAAAQIdAceFzi5MQoAAAQIECBAgQIAAAQIEJgUcFybXZmgCBAgQIECAAAECBAgQINARcFzo7MIkBAgQIECAAAECBAgQIEBgUsBxYXJthiZAgAABAgQIECBAgAABAh0Bx4XOLkxCgAABAgQIECBAgAABAgQmBRwXJtdmaAIECBAgQIAAAQIECBAg0BFwXOjswiQECBAgQIAAAQIECBAgQGBSwHFhcm2GJkCAAAECBAgQIECAAAECHQHHhc4uTEKAAAECBAgQIECAAAECBCYFHBcm12ZoAgQIECBAgAABAgQIECDQEXBc6OzCJAQIECBAgAABAgQIECBAYFLAcWFybYYmQIAAAQIECBAgQIAAAQIdAceFzi5MQoAAAQIECBAgQIAAAQIEJgUcFybXZmgCBAgQIECAAAECBAgQINARcFzo7MIkBAgQIECAAAECBAgQIEBgUsBxYXJthiZAgAABAgQIECBAgAABAh0Bx4XOLkxCgAABAgQIECBAgAABAgQmBRwXJtdmaAIECBAgQIAAAQIECBAg0BFwXOjswiQECBAgQIAAAQIECBAgQGBSwHFhcm2GJkCAAAECBAgQIECAAAECHQHHhc4uTEKAAAECBAgQIECAAAECBCYFHBcm12ZoAgQIECBAgAABAgQIECDQEXBc6OzCJAQIECBAgAABAgQIECBAYFLAcWFybYYmQIAAAQIECBAgQIAAAQIdAceFzi5MQoAAAQIECBAgQIAAAQIEJgUcFybXZmgCBAgQIECAAAECBAgQINARcFzo7MIkBAgQIECAAAECBAgQIEBgUsBxYXJthiZAgAABAgQIECBAgAABAh0Bx4XOLkxCgAABAgQIECBAgAABAgQmBRwXJtdmaAIECBAgQIAAAQIECBAg0BFwXOjswiQECBAgQIAAAQIECBAgQGBSwHFhcm2GJkCAAAECBAgQIECAAAECHQHHhc4uTEKAAAECBAgQIECAAAECBCYFHBcm12ZoAgQIECBAgAABAgQIECDQEXBc6OzCJAQIECBAgAABAgQIECBAYFLAcWFybYYmQIAAAQIECBAgQIAAAQIdAceFzi5MQoAAAQIECBAgQIAAAQIEJgUcFybXZmgCBAgQIECAAAECBAgQINARcFzo7MIkBAgQIECAAAECBAgQIEBgUsBxYXJthiZAgAABAgQIECBAgAABAh0Bx4XOLkxCgAABAgQIECBAgAABAgQmBRwXJtdmaAIECBAgQIAAAQIECBAg0BFwXOjswiQECBAgQIAAAQIECBAgQGBSwHFhcm2GJkCAAAECBAgQIECAAAECHQHHhc4uTEKAAAECBAgQIECAAAECBCYFHBcm12ZoAgQIECBAgAABAgQIECDQEXBc6OzCJAQIECBAgAABAgQIECBAYFLAcWFybYYmQIAAAQIECBAgQIAAAQIdAceFzi5MQoAAAQIECBAgQIAAAQIEJgUcFybXZmgCBAgQIECAAAECBAgQINARcFzo7MIkBAgQIECAAAECBAgQIEBgUsBxYXJthiZAgAABAgQIECBAgAABAh0Bx4XOLkxCgAABAgQIECBAgAABAgQmBRwXJtdmaAIECBAgQIAAAQIECBAg0BFwXOjswiQECBAgQIAAAQIECBAgQGBSwHFhcm2GJkCAAAECBAgQIECAAAECHQHHhc4uTEKAAAECBAgQIECAAAECBCYFHBcm12ZoAgQIECBAgAABAgQIECDQEXBc6OzCJAQIECBAgAABAgQIECBAYFLAcWFybYYmQIAAAQIECBAgQIAAAQIdAceFzi5MQoAAAQIECBAgQIAAAQIEJgUcFybXZmgCBAgQIECAAAECBAgQINARcFzo7MIkBAgQIECAAAECBAgQIEBgUsBxYXJthiZAgAABAgQIECBAgAABAh0Bx4XOLkxCgAABAgQIECBAgAABAgQmBRwXJtdmaAIECBAgQIAAAQIECBAg0BFwXOjswiQECBAgQIAAAQIECBAgQGBSwHFhcm2GJkCAAAECBAgQIECAAAECHQHHhc4uTEKAAAECBAgQIECAAAECBCYFHBcm12ZoAgQIECBAgAABAgQIECDQEXBc6OzCJAQIECBAgAABAgQIECBAYFLAcWFybYYmQIAAAQIECBAgQIAAAQIdAceFzi5MQoAAAQIECBAgQIAAAQIEJgUcFybXZmgCBAgQIECAAAECBAgQINAR+Ld9e1tJKACDMNr7P3B0ZxgEYobS7mI+9go6IjGu+fFiKOPCTheSECBAgAABAgQIECBAgACBpIBxIVmb0AQIECBAgAABAgQIECBAYEfAuLDThSQECBAgQIAAAQIECBAgQCApYFxI1iY0AQIECBAgQIAAAQIECBDYETAu7HQhCQECBAgQIECAAAECBAgQSAoYF5K1CU2AAAECBAgQIECAAAECBHYEjAs7XUhCgAABAgQIECBAgAABAgSSAsaFZG1CEyBAgAABAgQIECBAgACBHQHjwk4XkhAgQIAAAQIECBAgQIAAgaSAcSFZm9AECBAgQIAAAQIECBAgQGBHwLiw04UkBAgQIECAAAECBAgQIEAgKWBcSNYmNAECBAgQIECAAAECBAgQ2BEwLux0IQkBAgQIECBAgAABAgQIEEgKGBeStQlNgAABAgQIECBAgAABAgR2BIwLO11IQoAAAQIECBAgQIAAAQIEkgLGhWRtQhMgQIAAAQIECBAgQIAAgR0B48JOF5IQIECAAAECBAgQIECAAIGkgHEhWZvQBAgQIECAAAECBAgQIEBgR8C4sNOFJAQIECBAgAABAgQIECBAIClgXEjWJjQBAgQIECBAgAABAgQIENgRMC7sdCEJAQIECBAgQIAAAQIECBBIChgXkrUJTYAAAQIECBAgQIAAAQIEdgSMCztdSEKAAAECBAgQIECAAAECBJICxoVkbUITIECAAAECBAgQIECAAIEdAePCTheSECBAgAABAgQIECBAgACBpIBxIVmb0AQIECBAgAABAgQIECBAYEfAuLDThSQECBAgQIAAAQIECBAgQCApYFxI1iY0AQIECBAgQIAAAQIECBDYETAu7HQhCQECBAgQIECAAAECBAgQSAoYF5K1CU2AAAECBAgQIECAAAECBHYEjAs7XUhCgAABAgQIECBAgAABAgSSAsaFZG1CEyBAgAABAgQIECBAgACBHQHjwk4XkhAgQIAAAQIECBAgQIAAgaSAcSFZm9AECBAgQIAAAQIECBAgQGBHwLiw04UkBAgQIECAAAECBAgQIEAgKWBcSNYmNAECBAgQIECAAAECBAgQ2BEwLux0IQkBAgQIECBAgAABAgQIEEgKGBeStQlNgAABAgQIECBAgAABAgR2BIwLO11IQoAAAQIECBAgQIAAAQIEkgLGhWRtQhMgQIAAAQIECBAgQIAAgR0B48JOF5IQIEBbtNDJAAAeyklEQVSAAAECBAgQIECAAIGkgHEhWZvQBAgQIECAAAECBAgQIEBgR8C4sNOFJAQIECBAgAABAgQIECBAIClgXEjWJjQBAgQIECBAgAABAgQIENgRMC7sdCEJAQIECBAgQIAAAQIECBBIChgXkrUJTYAAAQIECBAgQIAAAQIEdgSMCztdSEKAAAECBAgQIECAAAECBJICxoVkbUITIECAAAECBAgQIECAAIEdAePCTheSECBAgAABAgQIECBAgACBpIBxIVmb0AQIECBAgAABAgQIECBAYEfAuLDThSQECBAgQIAAAQIECBAgQCApYFxI1iY0AQIECBAgQIAAAQIECBDYETAu7HQhCQECBAgQIECAAAECBAgQSAoYF5K1CU2AAAECBAgQIECAAAECBHYEjAs7XUhCgAABAgQIECBAgAABAgSSAsaFZG1CEyBAgAABAgQIECBAgACBHQHjwk4XkhAgQIAAAQIECBAgQIAAgaSAcSFZm9AECBAgQIAAAQIECBAgQGBHwLiw04UkBAgQIECAAAECBAgQIEAgKWBcSNYmNAECBAgQIECAAAECBAgQ2BEwLux0IQkBAgQIECBAgAABAgQIEEgKGBeStQlNgAABAgQIECBAgAABAgR2BIwLO11IQoAAAQIECBAgQIAAAQIEkgLGhWRtQhMgQIAAAQIECBAgQIAAgR0B48JOF5IQIECAAAECBAgQIECAAIGkgHEhWZvQBAgQIECAAAECBAgQIEBgR8C4sNOFJAQIECBAgAABAgQIECBAIClgXEjWJjQBAgQIECBAgAABAgQIENgRMC7sdCEJAQIECBAgQIAAAQIECBBIChgXkrUJTYAAAQIECBAgQIAAAQIEdgSMCztdSEKAAAECBAgQIECAAAECBJICxoVkbUITIECAAAECBAgQIECAAIEdAePCTheSECBAgAABAgQIECBAgACBpIBxIVmb0AQIECBAgAABAgQIECBAYEfAuLDThSQECBAgQIAAAQIECBAgQCApYFxI1iY0AQIECBAgQIAAAQIECBDYETAu7HQhCQECBAgQIECAAAECBAgQSAoYF5K1CU2AAAECBAgQIECAAAECBHYEjAs7XUhCgAABAgQIECBAgAABAgSSAsaFZG1CEyBAgAABAgQIECBAgACBHQHjwk4XkhAgQIAAAQIECBAgQIAAgaSAcSFZm9AECBAgQIAAAQIECBAgQGBHwLiw04UkBAgQIECAAAECBAgQIEAgKWBcSNYmNAECBAgQIECAAAECBAgQ2BEwLux0IQkBAgQIECBAgAABAgQIEEgKGBeStQlNgAABAgQIECBAgAABAgR2BIwLO11IQoAAAQIECBAgQIAAAQIEkgLGhWRtQhMgQIAAAQIECBAgQIAAgR0B48JOF5IQIECAAAECBAgQIECAAIGkgHEhWZvQBAgQIECAAAECBAgQIEBgR8C4sNOFJAQIECBAgAABAgQIECBAIClgXEjWJjQBAgQIECBAgAABAgQIENgRMC7sdCEJAQIECBAgQIAAAQIECBBIChgXkrUJTYAAAQIECBAgQIAAAQIEdgSMCztdSEKAAAECBAgQIECAAAECBJICxoVkbUITIECAAAECBAgQIECAAIEdAePCTheSECBAgAABAgQIECBAgACBpIBxIVmb0AQIECBAgAABAgQIECBAYEfAuLDThSQECBAgQIAAAQIECBAgQCApYFxI1iY0AQIECBAgQIAAAQIECBDYETAu7HQhCQECBAgQIECAAAECBAgQSAoYF5K1CU2AAAECBAgQIECAAAECBHYEjAs7XUhCgAABAgQIECBAgAABAgSSAsaFZG1CEyBAgAABAgQIECBAgACBHQHjwk4XkhAgQIAAAQIECBAgQIAAgaSAcSFZm9AECBAgQIAAAQIECBAgQGBHwLiw04UkBAgQIECAAAECBAgQIEAgKWBcSNYmNAECBAgQIECAAAECBAgQ2BEwLux0IQkBAgQIECBAgAABAgQIEEgKGBeStQlNgAABAgQIECBAgAABAgR2BIwLO11IQoAAAQIECBAgQIAAAQIEkgLGhWRtQhMgQIAAAQIECBAgQIAAgR0B48JOF5IQIECAAAECBAgQIECAAIGkgHEhWZvQBAgQIECAAAECBAgQIEBgR8C4sNOFJAQIECBAgAABAgQIECBAIClgXEjWJjQBAgQIECBAgAABAgQIENgRMC7sdCEJAQIECBAgQIAAAQIECBBIChgXkrUJTYAAAQIECBAgQIAAAQIEdgSMCztdSEKAAAECBAgQIECAAAECBJICxoVkbUITIECAAAECBAgQIECAAIEdAePCTheSECBAgAABAgQIECBAgACBpIBxIVmb0AQIECBAgAABAgQIECBAYEfAuLDThSQECBAgQIAAAQIECBAgQCApYFxI1iY0AQIECBAgQIAAAQIECBDYETAu7HQhCQECBAgQIECAAAECBAgQSAoYF5K1CU2AAAECBAgQIECAAAECBHYEjAs7XUhCgAABAgQIECBAgAABAgSSAsaFZG1CEyBAgAABAgQIECBAgACBHQHjwk4XkhAgQIAAAQIECBAgQIAAgaSAcSFZm9AECBAgQIAAAQIECBAgQGBHwLiw04UkBAgQIECAAAECBAgQIEAgKWBcSNYmNAECBAgQIECAAAECBAgQ2BEwLux0IQkBAgQIECBAgAABAgQIEEgKGBeStQlNgAABAgQIECBAgAABAgR2BIwLO11IQoAAAQIECBAgQIAAAQIEkgLGhWRtQhMgQIAAAQIECBAgQIAAgR0B48JOF5IQIECAAAECBAgQIECAAIGkgHEhWZvQBAgQIECAAAECBAgQIEBgR8C4sNOFJAQIECBAgAABAgQIECBAIClgXEjWJjQBAgQIECBAgAABAgQIENgRMC7sdCEJAQIECBAgQIAAAQIECBBIChgXkrUJTYAAAQIECBAgQIAAAQIEdgSMCztdSEKAAAECBAgQIECAAAECBJICxoVkbUITIECAAAECBAgQIECAAIEdAePCTheSECBAgAABAgQIECBAgACBpIBxIVmb0AQIECBAgAABAgQIECBAYEfAuLDThSQECBAgQIAAAQIECBAgQCApYFxI1iY0AQIECBAgQIAAAQIECBDYETAu7HQhCQECBAgQIECAAAECBAgQSAoYF5K1CU2AAAECBAgQIECAAAECBHYEjAs7XUhCgAABAgQIECBAgAABAgSSAsaFZG1CEyBAgAABAgQIECBAgACBHQHjwk4XkhAgQIAAAQIECBAgQIAAgaSAcSFZm9AECBAgQIAAAQIECBAgQGBHwLiw04UkBAgQIECAAAECBAgQIEAgKWBcSNYmNAECBAgQIECAAAECBAgQ2BEwLux0IQkBAgQIECBAgAABAgQIEEgKGBeStQlNgAABAgQIECBAgAABAgR2BIwLO11IQoAAAQIECBAgQIAAAQIEkgLGhWRtQhMgQIAAAQIECBAgQIAAgR0B48JOF5IQIECAAAECBAgQIECAAIGkgHEhWZvQBAgQIECAAAECBAgQIEBgR8C4sNOFJAQIECBAgAABAgQIECBAIClgXEjWJjQBAgQIECBAgAABAgQIENgRMC7sdCEJAQIECBAgQIAAAQIECBBIChgXkrUJTYAAAQIECBAgQIAAAQIEdgSMCztdSEKAAAECBAgQIECAAAECBJICxoVkbUITIECAAAECBAgQIECAAIEdAePCTheSECBAgAABAgQIECBAgACBpIBxIVmb0AQIECBAgAABAgQIECBAYEfAuLDThSQECBAgQIAAAQIECBAgQCApYFxI1iY0AQIECBAgQIAAAQIECBDYETAu7HQhCQECBAgQIECAAAECBAgQSAoYF5K1CU2AAAECBAgQIECAAAECBHYEjAs7XUhCgAABAgQIECBAgAABAgSSAsaFZG1CEyBAgAABAgQIECBAgACBHQHjwk4XkhAgQIAAAQIECBAgQIAAgaSAcSFZm9AECBAgQIAAAQIECBAgQGBHwLiw04UkBAgQIECAAAECBAgQIEAgKWBcSNYmNAECBAgQIECAAAECBAgQ2BEwLux0IQkBAgQIECBAgAABAgQIEEgKGBeStQlNgAABAgQIECBAgAABAgR2BIwLO11IQoAAAQIECBAgQIAAAQIEkgLGhWRtQhMgQIAAAQIECBAgQIAAgR0B48JOF5IQIECAAAECBAgQIECAAIGkgHEhWZvQBAgQIECAAAECBAgQIEBgR8C4sNOFJAQIECBAgAABAgQIECBAIClgXEjWJjQBAgQIECBAgAABAgQIENgRMC7sdCEJAQIECBAgQIAAAQIECBBIChgXkrUJTYAAAQIECBAgQIAAAQIEdgSMCztdSEKAAAECBAgQIECAAAECBJICxoVkbUITIECAAAECBAgQIECAAIEdAePCTheSECBAgAABAgQIECBAgACBpIBxIVmb0AQIECBAgAABAgQIECBAYEfAuLDThSQECBAgQIAAAQIECBAgQCApYFxI1iY0AQIECBAgQIAAAQIECBDYETAu7HQhCQECBAgQIECAAAECBAgQSAoYF5K1CU2AAAECBAgQIECAAAECBHYEjAs7XUhCgAABAgQIECBAgAABAgSSAsaFZG1CEyBAgAABAgQIECBAgACBHQHjwk4XkhAgQIAAAQIECBAgQIAAgaSAcSFZm9AECBAgQIAAAQIECBAgQGBHwLiw04UkBAgQIECAAAECBAgQIEAgKWBcSNYmNAECBAgQIECAAAECBAgQ2BEwLux0IQkBAgQIECBAgAABAgQIEEgKGBeStQlNgAABAgQIECBAgAABAgR2BIwLO11IQoAAAQIECBAgQIAAAQIEkgLGhWRtQhMgQIAAAQIECBAgQIAAgR0B48JOF5IQIECAAAECBAgQIECAAIGkgHEhWZvQBAgQIECAAAECBAgQIEBgR8C4sNOFJAQIECBAgAABAgQIECBAIClgXEjWJjQBAgQIECBAgAABAgQIENgRMC7sdCEJAQIECBAgQIAAAQIECBBIChgXkrUJTYAAAQIECBAgQIAAAQIEdgSMCztdSEKAAAECBAgQIECAAAECBJICxoVkbUITIECAAAECBAgQIECAAIEdAePCTheSECBAgAABAgQIECBAgACBpIBxIVmb0AQIECBAgAABAgQIECBAYEfAuLDThSQECBAgQIAAAQIECBAgQCApYFxI1iY0AQIECBAgQIAAAQIECBDYETAu7HQhCQECBAgQIECAAAECBAgQSAoYF5K1CU2AAAECBAgQIECAAAECBHYEjAs7XUhCgAABAgQIECBAgAABAgSSAsaFZG1CEyBAgAABAgQIECBAgACBHQHjwk4XkhAgQIAAAQIECBAgQIAAgaSAcSFZm9AECBAgQIAAAQIECBAgQGBHwLiw04UkBAgQIECAAAECBAgQIEAgKWBcSNYmNAECBAgQIECAAAECBAgQ2BEwLux0IQkBAgQIECBAgAABAgQIEEgKGBeStQlNgAABAgQIECBAgAABAgR2BIwLO11IQoAAAQIECBAgQIAAAQIEkgLGhWRtQhMgQIAAAQIECBAgQIAAgR0B48JOF5IQIECAAAECBAgQIECAAIGkgHEhWZvQBAgQIECAAAECBAgQIEBgR8C4sNOFJAQIECBAgAABAgQIECBAIClgXEjWJjQBAgQIECBAgAABAgQIENgRMC7sdCEJAQIECBAgQIAAAQIECBBIChgXkrUJTYAAAQIECBAgQIAAAQIEdgSMCztdSEKAAAECBAgQIECAAAECBJICxoVkbUITIECAAAECBAgQIECAAIEdAePCTheSECBAgAABAgQIECBAgACBpIBxIVmb0AQIECBAgAABAgQIECBAYEfAuLDThSQECBAgQIAAAQIECBAgQCApYFxI1iY0AQIECBAgQIAAAQIECBDYETAu7HQhCQECBAgQIECAAAECBAgQSAoYF5K1CU2AAAECBAgQIECAAAECBHYEjAs7XUhCgAABAgQIECBAgAABAgSSAsaFZG1CEyBAgAABAgQIECBAgACBHQHjwk4XkhAgQIAAAQIECBAgQIAAgaSAcSFZm9AECBAgQIAAAQIECBAgQGBHwLiw04UkBAgQIECAAAECBAgQIEAgKWBcSNYmNAECBAgQIECAAAECBAgQ2BEwLux0IQkBAgQIECBAgAABAgQIEEgKGBeStQlNgAABAgQIECBAgAABAgR2BIwLO11IQoAAAQIECBAgQIAAAQIEkgLGhWRtQhMgQIAAAQIECBAgQIAAgR0B48JOF5IQIECAAAECBAgQIECAAIGkgHEhWZvQBAgQIECAAAECBAgQIEBgR8C4sNOFJAQIECBAgAABAgQIECBAIClgXEjWJjQBAgQIECBAgAABAgQIENgRMC7sdCEJAQIECBAgQIAAAQIECBBIChgXkrUJTYAAAQIECBAgQIAAAQIEdgSMCztdSEKAAAECBAgQIECAAAECBJICxoVkbUITIECAAAECBAgQIECAAIEdAePCTheSECBAgAABAgQIECBAgACBpIBxIVmb0AQIECBAgAABAgQIECBAYEfAuLDThSQECBAgQIAAAQIECBAgQCApYFxI1iY0AQIECBAgQIAAAQIECBDYETAu7HQhCQECBAgQIECAAAECBAgQSAoYF5K1CU2AAAECBAgQIECAAAECBHYEjAs7XUhCgAABAgQIECBAgAABAgSSAsaFZG1CEyBAgAABAgQIECBAgACBHQHjwk4XkhAgQIAAAQIECBAgQIAAgaSAcSFZm9AECBAgQIAAAQIECBAgQGBHwLiw04UkBAgQIECAAAECBAgQIEAgKWBcSNYmNAECBAgQIECAAAECBAgQ2BEwLux0IQkBAgQIECBAgAABAgQIEEgKGBeStQlNgAABAgQIECBAgAABAgR2BIwLO11IQoAAAQIECBAgQIAAAQIEkgLGhWRtQhMgQIAAAQIECBAgQIAAgR0B48JOF5IQIECAAAECBAgQIECAAIGkgHEhWZvQBAgQIECAAAECBAgQIEBgR8C4sNOFJAQIECBAgAABAgQIECBAIClgXEjWJjQBAgQIECBAgAABAgQIENgRMC7sdCEJAQIECBAgQIAAAQIECBBIChgXkrUJTYAAAQIECBAgQIAAAQIEdgSMCztdSEKAAAECBAgQIECAAAECBJICxoVkbUITIECAAAECBAgQIECAAIEdAePCTheSECBAgAABAgQIECBAgACBpIBxIVmb0AQIECBAgAABAgQIECBAYEfAuLDThSQECBAgQIAAAQIECBAgQCApYFxI1iY0AQIECBAgQIAAAQIECBDYETAu7HQhCQECBAgQIECAAAECBAgQSAoYF5K1CU2AAAECBAgQIECAAAECBHYEjAs7XUhCgAABAgQIECBAgAABAgSSAsaFZG1CEyBAgAABAgQIECBAgACBHQHjwk4XkhAgQIAAAQIECBAgQIAAgaSAcSFZm9AECBAgQIAAAQIECBAgQGBHwLiw04UkBAgQIECAAAECBAgQIEAgKWBcSNYmNAECBAgQIECAAAECBAgQ2BEwLux0IQkBAgQIECBAgAABAgQIEEgKGBeStQlNgAABAgQIECBAgAABAgR2BIwLO11IQoAAAQIECBAgQIAAAQIEkgLGhWRtQhMgQIAAAQIECBAgQIAAgR0B48JOF5IQIECAAAECBAgQIECAAIGkgHEhWZvQBAgQIECAAAECBAgQIEBgR8C4sNOFJAQIECBAgAABAgQIECBAIClgXEjWJjQBAgQIECBAgAABAgQIENgRMC7sdCEJAQIECBAgQIAAAQIECBBIChgXkrUJTYAAAQIECBAgQIAAAQIEdgSMCztdSEKAAAECBAgQIECAAAECBJICxoVkbUITIECAAAECBAgQIECAAIEdAePCTheSECBAgAABAgQIECBAgACBpIBxIVmb0AQIECBAgAABAgQIECBAYEfAuLDThSQECBAgQIAAAQIECBAgQCApYFxI1iY0AQIECBAgQIAAAQIECBDYETAu7HQhCQECBAgQIECAAAECBAgQSAoYF5K1CU2AAAECBAgQIECAAAECBHYEjAs7XUhCgAABAgQIECBAgAABAgSSAsaFZG1CEyBAgAABAgQIECBAgACBHQHjwk4XkhAgQIAAAQIECBAgQIAAgaSAcSFZm9AECBAgQIAAAQIECBAgQGBHwLiw04UkBAgQIECAAAECBAgQIEAgKWBcSNYmNAECBAgQIECAAAECBAgQ2BEwLux0IQkBAgQIECBAgAABAgQIEEgKGBeStQlNgAABAgQIECBAgAABAgR2BIwLO11IQoAAAQIECBAgQIAAAQIEkgLGhWRtQhMgQIAAAQIECBAgQIAAgR0B48JOF5IQIECAAAECBAgQIECAAIGkgHEhWZvQBAgQIECAAAECBAgQIEBgR8C4sNOFJAQIECBAgAABAgQIECBAIClgXEjWJjQBAgQIECBAgAABAgQIENgRMC7sdCEJAQIECBAgQIAAAQIECBBIChgXkrUJTYAAAQIECBAgQIAAAQIEdgSMCztdSEKAAAECBAgQIECAAAECBJICxoVkbUITIECAAAECBAgQIECAAIEdAePCTheSECBAgAABAgQIECBAgACBpIBxIVmb0AQIECBAgAABAgQIECBAYEfAuLDThSQECBAgQIAAAQIECBAgQCApYFxI1iY0AQIECBAgQIAAAQIECBDYETAu7HQhCQECBAgQIECAAAECBAgQSAoYF5K1CU2AAAECBAgQIECAAAECBHYEjAs7XUhCgAABAgQIECBAgAABAgSSAsaFZG1CEyBAgAABAgQIECBAgACBHQHjwk4XkhAgQIAAAQIECBAgQIAAgaSAcSFZm9AECBAgQIAAAQIECBAgQGBHwLiw04UkBAgQIECAAAECBAgQIEAgKWBcSNYmNAECBAgQIECAAAECBAgQ2BEwLux0IQkBAgQIECBAgAABAgQIEEgKGBeStQlNgAABAgQIECBAgAABAgR2BIwLO11IQoAAAQIECBAgQIAAAQIEkgLGhWRtQhMgQIAAAQIECBAgQIAAgR0B48JOF5IQIECAAAECBAgQIECAAIGkgHEhWZvQBAgQIECAAAECBAgQIEBgR8C4sNOFJAQIECBAgAABAgQIECBAIClgXEjWJjQBAgQIECBAgAABAgQIENgRMC7sdCEJAQIECBAgQIAAAQIECBBIChgXkrUJTYAAAQIECBAgQIAAAQIEdgSMCztdSEKAAAECBAgQIECAAAECBJICxoVkbUITIECAAAECBAgQIECAAIEdAePCTheSECBAgAABAgQIECBAgACBpIBxIVmb0AQIECBAgAABAgQIECBAYEfAuLDThSQECBAgQIAAAQIECBAgQCApYFxI1iY0AQIECBAgQIAAAQIECBDYETAu7HQhCQECBAgQIECAAAECBAgQSAoYF5K1CU2AAAECBAgQIECAAAECBHYEjAs7XUhCgAABAgQIECBAgAABAgSSAsaFZG1CEyBAgAABAgQIECBAgACBHQHjwk4XkhAgQIAAAQIECBAgQIAAgaSAcSFZm9AECBAgQIAAAQIECBAgQGBHwLiw04UkBAgQIECAAAECBAgQIEAgKWBcSNYmNAECBAgQIECAAAECBAgQ2BEwLux0IQkBAgQIECBAgAABAgQIEEgKGBeStQlNgAABAgQIECBAgAABAgR2BIwLO11IQoAAAQIECBAgQIAAAQIEkgLGhWRtQhMgQIAAAQIECBAgQIAAgR0B48JOF5IQIECAAAECBAgQIECAAIGkgHEhWZvQBAgQIECAAAECBAgQIEBgR8C4sNOFJAQIECBAgAABAgQIECBAIClgXEjWJjQBAgQIECBAgAABAgQIENgRMC7sdCEJAQIECBAgQIAAAQIECBBICvzruPD9y3x+uzBg4AbcgBtwA27ADbgBN+AG3IAbcANnu4H3j4/Ls/frevL26EFnw/J8vUC4ATfgBtyAG3ADbsANuAE34AbcgBv4eQOPNoP7n/06Ltw/0PfPlxpGjNyAG3ADbsANuAE34AbcgBtwA27gjDdgXHjhzzvOeBiesxdEN+AG3IAbcANuwA24ATfgBtyAG3j1BowLxoWn/zvz6jF5nBceN+AG3IAbcANuwA24ATfgBtzAOW/AuGBcMC64ATfgBtyAG3ADbsANuAE34AbcgBs4dAPGBQd06ICskudcJfWudzfgBtyAG3ADbsANuAE34AZub8C4YFwwLrgBN+AG3IAbcANuwA24ATfgBtyAGzh0A8YFB3TogG6XKl9bLt2AG3ADbsANuAE34AbcgBtwA+e8AeOCccG44AbcgBtwA27ADbgBN+AG3IAbcANu4NANGBcc0KEDskqec5XUu97dgBtwA27ADbgBN+AG3IAbuL0B44JxwbjgBtyAG3ADbsANuAE34AbcgBtwA27g0A18jQvXD94IECBAgAABAgQIECBAgAABAn8V+AS6dpa1/L8WxAAAAABJRU5ErkJggg==;" parent="1" vertex="1">
                    <mxGeometry x="850" y="510" width="1047" height="1337" as="geometry"/>
                </mxCell>
                <mxCell id="_sYfLdinzcXWraGzEgif-7" value="&lt;font style=&quot;font-size: 100px&quot;&gt;Rust Source Code Analysis&lt;/font&gt;" style="text;html=1;strokeColor=none;fillColor=none;align=center;verticalAlign=middle;whiteSpace=wrap;rounded=0;fontSize=100;fontStyle=0;fontColor=#FFFFFF;fontFamily=Comic Sans MS;" parent="1" vertex="1">
                    <mxGeometry x="960.25" y="780" width="826.5" height="130" as="geometry"/>
                </mxCell>
                <mxCell id="_sYfLdinzcXWraGzEgif-11" value="&lt;font style=&quot;font-size: 43px&quot;&gt;Open Source book&lt;/font&gt;" style="text;html=1;align=center;verticalAlign=middle;whiteSpace=wrap;rounded=0;fontSize=43;fontStyle=2" parent="1" vertex="1">
                    <mxGeometry x="914.39" y="1700" width="918.21" height="40" as="geometry"/>
                </mxCell>
                <mxCell id="_Lq2v10kkMJee7GaQX28-1" value="" style="shape=image;imageAspect=0;aspect=fixed;verticalLabelPosition=bottom;verticalAlign=top;image=data:image/png,iVBORw0KGgoAAAANSUhEUgAAAIAAAACACAMAAAD04JH5AAACzVBMVEX///8jHx8jHx8jHx8jHx8jHx8jHx8jHx8jHx8jHx8jHx8jHx8jHx8jHx8jHx8jHx8jHx8jHx8jHx8jHx8jHx8jHx8jHx8jHx8jHx8jHx8jHx8jHx8jHx8jHx8jHx8jHx8jHx8jHx8jHx8jHx8jHx8jHx8jHx8jHx8jHx8jHx8jHx8jHx8jHx8jHx8jHx8jHx8jHx8jHx8jHx8jHx8jHx8jHx8jHx8jHx8jHx8jHx8jHx8jHx8jHx8jHx8jHx8jHx8jHx8jHx8jHx8jHx8jHx8jHx8jHx8jHx8jHx8jHx8jHx8jHx8jHx8jHx8jHx8jHx8jHx8jHx8jHx8jHx8jHx8jHx8jHx8jHx8jHx8jHx8jHx8jHx8jHx8jHx8jHx8jHx8jHx8jHx8jHx8jHx8jHx8jHx8jHx8jHx8jHx8jHx8jHx8jHx8jHx8jHx8jHx8jHx8jHx8jHx8jHx8jHx8jHx8jHx8jHx8jHx8jHx8jHx8jHx8jHx8jHx8jHx8jHx8jHx8jHx8jHx8jHx8jHx8jHx8jHx8jHx8jHx8jHx8jHx8jHx8jHx8jHx8jHx8jHx8jHx8jHx8jHx8jHx8jHx8jHx8jHx8jHx8jHx8jHx8jHx8jHx8jHx8jHx8jHx8jHx8jHx8jHx8jHx8jHx8jHx8jHx8jHx8jHx8jHx8jHx8jHx8jHx8jHx8jHx8jHx8jHx8jHx8jHx8jHx8jHx8jHx8jHx8jHx8jHx8jHx8jHx8jHx8jHx8jHx8jHx8jHx8jHx8jHx8jHx8jHx8jHx8jHx8jHx8jHx8jHx8jHx8jHx8jHx8jHx8jHx8jHx8jHx8jHx8jHx8jHx8jHx8jHx8jHx8jHx8jHx8jHx8jHx8jHx8jHx8jHx8jHx8jHx8jHx8jHx8jHx8jHx8jHx8jHx8jHx8jHx8jHx8jHx8jHx8jHx8jHx8jHx8jHx8jHx8jHx8jHx85pm7aAAAA73RSTlMAQe3uQlHfwhwL4f/jDOBSBOjaFYuN2OkFTM4PLvwwzU6JmCCsCgLGyMGtH5aK8FgT+bUtfoCzV59rbOzcNNLTLxc4CUDrFGnFg5HmfeqQ9pUjEbhqvLkih/7zshn9Z3PJdnASYNebhhpe0WLUW2SdrvSlA1851Wj1OtuTATy73ogxt91HJOR6RVz7HqjKVQYz96mkj3d1+llTO3+ODma6JSwpohbvPyHxoHKUgVTPwHsQnLDHNpI3plYYPQf4KHkqvkrDguW2KzLMCIXZcYzy4jWxJk20Q6NIT3ieRJeavVqZUKtJYT6/1g0ny25LbZJoaAwAAAg5SURBVHgB7NODshtAAAXQWwb32bZt20Zs18b/T3d3OsxO7OT8w0GZq6l58fLVaxTcm7cGIxSTmayrh2I0NDSiIJqayZZWSG0U2iG1dpCdXSiEbgo9vQD6+in0DwDoHaQwhPypHx4ZhTJGyTCOiUkqUxMYn6Y0A2V2br4XuTZPLixCWFqmsrK6xv/WVzeoLC9B2Fwg55FrBgpb9cA2E9gB6rcoGJBru5T29vsOmMDh0X4LpVfIsVam6Ri5cdJ4CumMaTqDdNp4knW587ULAJfUurq+uaXWNoCLu/tsaz5QeHx6tlipYwNgslPHYXE+PVJ4QDZcVNwe6ngh+Zap4/FTGUY21plIAMoVE1lHNoJMxAYlxETCyEaEiRggOf1MJIJMjJ9EIcWo9e59bJrChybgYw8F76e5z9T6Ail6YkIaTC10fx35Nju+wTjL1u/HAHpDFPZ+/PxF4fcfAMd/N5YZZ+Nf+/YA5ta2QAF4lWm63jB1phrVGBuvHV2m7pe5rp8xtW27HVzbtm3b9v1svZOTLznYJ8lOdp7v/9krzjl7Lfe4P2X/0c9MN+QtY5CPdssrvAiaX8ewRW0I8q4YTruVDFoFefPprLQBBs9qMmjNWhjWldLZfMRhOR2snwKLPhuo2wirTZvpYDnikU3Blq2w27admh0Q7BxAQTbisYs2uxdPhWjP3g379sPBgZLdtNmFeOTQastBxGnTQlrlIB55h2h22Iu4pRyh2aE8SBl8dHHJRfMWlNLsGBJy/AKalC6Yd1HJ4nMHI6opFJ04iQSl+SiagmjSKPD1RMJ6tlJwCtFMbaSNbxkUnPbRpnEqomqnDdT0PEGrdkTXdIhKDo3uaMiP8o1yqAkxjKeyvsc6YTiDZuMRy3Q/1VV1rUVI26U0+C9DLDNamQzrf4uQpgyGtc5AVJ6GFTOZHH0vR8hgGmauaPDAWcoEVxWTqPEKhFxJiyrXhBSINjLJVs9AEK66mjYTJN7+6o4gpFDmz0HORCbbNQi69gJaXZcDB5OYbIUIOpc2k+ConEnmX4KAzlZaXQ9nKdVMsl0IuIFW1SmIoIa6C25saDhzKMkLoGPCOqBJTyW5cs0fbjqLQTWIJIu6k9DcTNI3OVIA2GRfRyd/h2Y/yR5FAGbcQl09nE2urGXAaOhuJXmbbADcfgcd3AnNXSQvQsDd1NVVToYgfXBuAYPuQfg27FkHZAMAiygqB3AvNVnQ/Y1BBbmD02HRK4NhY6G7j5r75QM8EOHS/O/UPIiAh04wLKMXzFJpeHgbNDmHqOkvHwA+Ch4BMJCaO8SL/VSYuWiyoQF4MJMBj8oHeIyCx6Hpy4BL2oAnWmnyJMz6ZNKsqpG6Hg9IB3C7IvwDf4q6p59ZTrPMPrDwDKHo8WchGcDTlUrBjQho6zhB0RAPbLwuWp248jlANgAdPP8Cgpa82J02Li8EeYU06f7iEoQwIZkehOU1v0Szwjw4KGLYS815MDARtzwAs/zBj9OQBQf57Qw7H2ZMwF87YXeaYe35EGTdRcMgxQAPv7wWgkE03JUFK/crQ2l4FWoB/A1w8ioNQ19xw6TbazSbqBiAT78OB1fT7LVuMPSgRV/VAPSNgCiVFj0iB7haOQBPbIXg6sgBer5Gs1b1ALw6B3Z/o9lrPWGSYnkTMgkB+AZM3hymoeVNmAKr+tERj7yYmIMIc/tpNbo++hfRplgBYFFLJ9cj7HZatefH+Cp+K74AbbfRwXWDIgYogoO8txl2iVwAwyV08E7EG69v50HgHUPDu/EGWNtC0U0I2UmbMV7YeIbTpC7eAHiPos0I6aDdcA8s+gygmX9+vAHaqiiYmIKgcX+jYEAfmLlo9X68AfBXip6ZjIBnF9KBK9rXNFviDvABHbz6YdfJS57x00lvmPUayEQh6CPGZ2AvWAwaMbZAKYDXT3kFuSMGOV2c1ikEwABKMi5OBfUqAa6nrHpEUqMSoJmyahBBSqZKgCzKykxBMm9SIeQsyiqHozKqBVhDaWVwMG6iYoBtJyhr4jiIPmZiELaY0rIhGqkc4MBdlDUBIu8EVw+1APDUUUYPV8Synadh1kyFAEj5ZCijmzmrwRPHkc2nSILZFI9spA+tJkHZZzTxT0cs02i2chMUbVpJs2mIoclHi4HbAGz77MzRh17NzoOkBz6/5dONX5wPzbZzaOFrQnTFtKkuLmxk0GHISdlC3W++PP7VBtq0Q/rwWuC/ClK6KJI9vE5jNO9Dyt8ZTZp0gcHQ+46911GzGFJWU7Oy5SU6moKo3jp3Y8nxeV+X0qR/OtA0iuRsyJhMzZW3A99k0KT063nHSzae+xakuH0Mu3gtNEsKyFfzIeErkqPboLmGhkPuhGs8x6H7luRjsiXIZui20JCTcJHpZejWk/waEjaTvB+6fQkXmbKFH4Smv8nWsbqHewozChKuci23lzLdz1Dz3feI6QdqCr4B0LY34TLbfFr8uPjM7dS9euZjiOqKM69jQMHHZRXP02K+WqHRSHPRdEQw94YfKfIxaBnkuVeTy7VKp7uUTr678f65sLl2/43f0WCvdJLV8ZVKl9lKrYKrR7374k8nv/j55y9O/vLiuy0TKbKUWpe5kYh5VDYPKi6isuNQUUJlJcktt8tr9VO3Man1fnlz5k836v1qA4d2Y+AgyRg4NJJv/VdPPBRGLlf9c2Y+q2uy6hhFXdZBtZmPxNCpMtbQ6UNqXP/8qdfbRe3/0qlXysbxlrHbmDzk32WM3W5lQG5o7DbS+8+e+w23z/2ep+atf9ngcYAHAa8oDB4VfGFMPl8zTz579/p/Gb3+6ldJ9Q/0IZ/Qfj3DGQAAAABJRU5ErkJggg==;" parent="1" vertex="1">
                    <mxGeometry x="1108.5" y="1060" width="530" height="530" as="geometry"/>
                </mxCell>
            </root>
        </mxGraphModel>
    </diagram>
</mxfile>